<svg width="48" height="61" viewBox="0 0 48 61" fill="none" xmlns="http://www.w3.org/2000/svg">
<g clip-path="url(#clip0_4_517)">
<path d="M42.5178 60.7688H0.861328V0.368774H47.0942V56.8348C47.0942 59.0073 45.0451 60.7688 42.5178 60.7688Z" fill="#FFFFF5"/>
<path d="M47.0062 0.368774H0.850098V3.17278H47.0062V0.368774Z" fill="#94AEBF"/>
<path d="M35.4356 33.5863C36.058 33.5863 36.058 32.8767 35.4356 32.8767H12.2682C11.6458 32.8767 11.6458 33.5863 12.2682 33.5863H35.4356Z" fill="#94AEBF"/>
<path d="M22.922 5.11749C19.21 5.11749 15.8876 6.77383 13.6349 9.39202L22.922 17.5013L32.2091 9.39202C29.9564 6.77467 26.634 5.11749 22.922 5.11749Z" fill="#CDDBA6"/>
<path d="M35.9704 15.687L23.8073 17.4492V29.8331C30.5997 29.8331 36.0964 24.294 36.0964 17.4492C36.0964 16.8506 36.0521 16.2629 35.9704 15.687Z" fill="#A36652"/>
<path d="M13.6482 9.43323C9.27035 14.6671 9.93032 22.4712 15.1241 26.8828C15.578 27.2687 16.0528 27.6134 16.5425 27.922L23.0446 17.4148L13.6482 9.43323Z" fill="#B3D1E2"/>
<path d="M23.0271 29.8146C20.7243 29.8146 18.414 29.1672 16.384 27.848L23.0288 17.4316L23.0271 29.8146Z" fill="#679BC6"/>
<path d="M36.5953 15.0042C36.2548 12.5945 35.2278 10.4102 33.7193 8.65717L24.4321 16.7665L36.5953 15.0042Z" fill="#F4D242"/>
<path d="M10.8114 47.0977H6.29675V58.0555H10.8114V47.0977Z" fill="#6A8678"/>
<path d="M10.8114 42.8542H6.29675V48.0032H10.8114V42.8542Z" fill="#CDDBA6"/>
<path d="M40.5309 47.592H36.0162V58.5499H40.5309V47.592Z" fill="#6A8678"/>
<path d="M40.5601 38.3434H36.0162V48.4976H40.5601V38.3434Z" fill="#CDDBA6"/>
<path d="M30.6246 46.7269H26.11V58.3027H30.6246V46.7269Z" fill="#6A8678"/>
<path d="M30.6246 45.6969H26.11V53.38H30.6246V45.6969Z" fill="#CDDBA6"/>
<path d="M20.7177 42.6945H16.203V58.2397H20.7177V42.6945Z" fill="#6A8678"/>
<path d="M20.7177 36.6754H16.203V49.1097H20.7177V36.6754Z" fill="#CDDBA6"/>
<path d="M2.61395 2.56403C2.28689 2.56403 2.0199 2.29582 2.0199 1.9654C2.0199 1.63497 2.28605 1.36676 2.61395 1.36676C2.94185 1.36676 3.20801 1.63497 3.20801 1.9654C3.20801 2.29582 2.94185 2.56403 2.61395 2.56403ZM2.61395 1.46765C2.34112 1.46765 2.11918 1.6913 2.11918 1.96624C2.11918 2.24117 2.34112 2.46482 2.61395 2.46482C2.88679 2.46482 3.10872 2.24117 3.10872 1.96624C3.10872 1.6913 2.88679 1.46765 2.61395 1.46765Z" fill="white"/>
<path d="M4.44452 2.56403C4.11746 2.56403 3.85046 2.29582 3.85046 1.9654C3.85046 1.63497 4.11662 1.36676 4.44452 1.36676C4.77242 1.36676 5.03858 1.63497 5.03858 1.9654C5.03858 2.29582 4.77242 2.56403 4.44452 2.56403ZM4.44452 1.46765C4.17169 1.46765 3.94975 1.6913 3.94975 1.96624C3.94975 2.24117 4.17169 2.46482 4.44452 2.46482C4.71735 2.46482 4.93929 2.24117 4.93929 1.96624C4.93929 1.6913 4.71735 1.46765 4.44452 1.46765Z" fill="white"/>
<path d="M6.27423 2.56403C5.94717 2.56403 5.68018 2.29582 5.68018 1.9654C5.68018 1.63497 5.94633 1.36676 6.27423 1.36676C6.60213 1.36676 6.86829 1.63497 6.86829 1.9654C6.86829 2.29582 6.60213 2.56403 6.27423 2.56403ZM6.27423 1.46765C6.0014 1.46765 5.77946 1.6913 5.77946 1.96624C5.77946 2.24117 6.0014 2.46482 6.27423 2.46482C6.54706 2.46482 6.769 2.24117 6.769 1.96624C6.769 1.6913 6.54706 1.46765 6.27423 1.46765Z" fill="white"/>
</g>
<defs>
<clipPath id="clip0_4_517">
<rect width="46.2437" height="60.4" fill="white" transform="translate(0.850098 0.368774)"/>
</clipPath>
</defs>
</svg>
