<svg width="95" height="52" viewBox="0 0 95 52" fill="none" xmlns="http://www.w3.org/2000/svg">
<path d="M61.5883 26.7915V27.1942C61.5883 28.3092 62.2028 29.2128 62.9636 29.2128H77.4027C77.5532 29.2128 77.6974 29.1775 77.8333 29.1121C78.383 28.8478 78.7781 28.0902 78.7781 27.1942V26.7915C78.7781 25.6765 78.1635 24.7729 77.4027 24.7729H62.9636C62.2049 24.7729 61.5883 25.6765 61.5883 26.7915Z" fill="#471A0B"/>
<path d="M65.9484 26.7411V27.1438C65.9484 28.2588 66.6987 29.1624 67.6247 29.1624H77.6242C78.2952 28.8981 78.778 28.1405 78.778 27.2445V26.8418C78.778 25.7268 78.0276 24.8232 77.1017 24.8232H67.1022C66.4333 25.0875 65.9484 25.8451 65.9484 26.7411Z" fill="#843317"/>
<path d="M73.7781 21.7239H2.77808V50.7239H73.7781V21.7239Z" fill="#471A0B"/>
<path d="M5.4659 50.4981C6.56164 51.89 17.8365 51.89 18.9297 50.4981C20.0255 49.1063 19.9247 47.0172 19.9247 47.0172C19.9247 47.0172 19.9247 46.3427 19.9247 45.2051C19.9247 43.7956 19.9197 41.6764 19.9121 39.2526C19.9121 39.0185 19.9121 38.7844 19.9096 38.5453C19.9021 36.2348 19.8895 33.6953 19.8693 31.2488C19.8643 30.524 19.8567 29.8066 19.8517 29.1069C19.8089 24.4482 19.7383 20.5369 19.6275 19.8724C19.3302 18.0829 17.5367 12.7118 16.9398 11.4207C16.8037 11.1237 16.703 10.6606 16.6299 10.1219C15.4788 10.1849 13.7709 10.2251 11.8641 10.2251C10.9623 10.2251 10.1058 10.2151 9.32998 10.2C8.75818 10.1874 8.22919 10.1723 7.76319 10.1522C7.69014 10.6757 7.5919 11.1287 7.45839 11.4182C6.8614 12.7118 5.07042 18.0804 4.77066 19.8699C4.66235 20.5168 4.59434 24.2518 4.549 28.7571C4.51625 32.0291 4.49862 35.7063 4.48602 38.8977C4.47091 43.4508 4.47091 47.0172 4.47091 47.0172C4.47091 47.0172 4.37267 49.1063 5.4659 50.4981Z" fill="#FCF7F0"/>
<path d="M7.76313 10.1522C8.23165 10.1724 8.75812 10.1875 9.32992 10.2001C10.1058 10.2177 10.9622 10.2252 11.864 10.2252C13.7708 10.2252 15.4787 10.185 16.6299 10.122C16.6122 9.99619 16.5971 9.86531 16.582 9.73192C16.4661 8.65217 16.4384 7.38113 16.4359 6.54803C16.4359 6.36178 16.4359 6.19819 16.4359 6.06479C16.4359 5.93391 16.4359 5.8282 16.4384 5.75773C16.4384 5.68977 16.4384 5.65453 16.4384 5.65453V3.56551L14.1512 3.6687L12.194 3.75679L10.2367 3.6687L9.09566 3.61584L7.94953 3.56299V5.65202C7.94953 5.65202 7.94953 5.68725 7.94953 5.75521C7.94953 5.82568 7.94953 5.93139 7.95205 6.06227C7.95205 6.19819 7.95205 6.36178 7.95205 6.54552C7.94953 7.37106 7.92182 8.627 7.80847 9.6992C7.79084 9.85524 7.7732 10.0063 7.75305 10.1522H7.76313Z" fill="#CCCBC9"/>
<path d="M7.76314 10.1522C8.23167 10.1723 8.75813 10.1874 9.32993 10.2C10.1058 10.2176 10.9622 10.2252 11.864 10.2252C13.7709 10.2252 15.4787 10.1849 16.6299 10.122C16.6122 9.99613 16.5971 9.86525 16.582 9.73186C15.4334 9.66893 13.7457 9.62866 11.864 9.62866C10.9824 9.62866 10.141 9.63621 9.37779 9.65383C8.80851 9.66642 8.28204 9.68152 7.81604 9.69914C7.7984 9.85518 7.78077 10.0062 7.76062 10.1522H7.76314Z" fill="#EDE9E2"/>
<path d="M16.4435 3.66614H7.95459V4.45645H16.4435V3.66614Z" fill="#A8A59E"/>
<path d="M7.95963 6.06219C7.95963 6.1981 7.95963 6.3617 7.95963 6.54543H16.4359C16.4359 6.35918 16.4359 6.19559 16.4359 6.06219C16.4359 5.93131 16.4359 5.8256 16.4384 5.75513H7.95459C7.95459 5.8256 7.95459 5.93131 7.95711 6.06219H7.95963Z" fill="#A8A59E"/>
<path d="M7.46594 5.70486C7.46594 5.90118 7.62464 6.06226 7.82363 6.06226H16.7055C16.902 6.06226 17.0632 5.90369 17.0632 5.70486C17.0632 5.6067 17.0229 5.51609 16.9574 5.45317C16.8919 5.38773 16.8037 5.34998 16.7055 5.34998H7.82363C7.62716 5.34998 7.46594 5.50854 7.46594 5.70738V5.70486Z" fill="#CCCBC9"/>
<path d="M7.46594 3.66616C7.46594 3.86248 7.62464 4.02356 7.82363 4.02356H16.7055C16.902 4.02356 17.0632 3.865 17.0632 3.66616C17.0632 3.568 17.0229 3.47991 16.9574 3.41447C16.9246 3.38175 16.8868 3.35658 16.8465 3.33897C16.8037 3.32135 16.7559 3.31128 16.7055 3.31128H7.82363C7.77326 3.31128 7.7254 3.32135 7.68257 3.33897C7.55663 3.39434 7.46594 3.52018 7.46594 3.66616Z" fill="#CCCBC9"/>
<g style="mix-blend-mode:multiply">
<path d="M5.46606 50.4981C6.56181 51.89 17.8367 51.89 18.9299 50.4981C20.0256 49.1063 19.9249 47.0173 19.9249 47.0173C19.9249 47.0173 19.9249 46.3427 19.9249 45.2051C16.5722 46.7958 12.7282 46.9267 10.2647 43.4584C10.1362 43.2772 10.0103 43.0859 9.89187 42.887C9.46365 42.1747 9.10344 41.4197 8.80117 40.6319C7.56436 37.4228 7.26964 33.6802 7.19407 30.1767C7.17896 29.4191 7.1714 28.6716 7.16888 27.9442C7.16888 27.7 7.16888 27.4609 7.16888 27.2218C7.1588 22.2761 7.71297 17.0384 8.92711 12.4199C9.12359 11.6724 9.25458 10.935 9.33266 10.1975C9.35282 10.0163 9.36793 9.83255 9.38053 9.65133C9.45609 8.62192 9.43846 7.5925 9.36793 6.54296C9.35785 6.38187 9.34526 6.22079 9.33266 6.05971C9.32511 5.95652 9.31755 5.85584 9.30748 5.75265C9.29488 5.61925 9.28229 5.48334 9.26969 5.34743C9.26213 5.27947 9.2571 5.21151 9.24954 5.14356C9.22687 4.912 9.2042 4.68297 9.18405 4.45644C9.16893 4.31046 9.15634 4.167 9.14122 4.02102C9.12863 3.90273 9.11855 3.78191 9.10596 3.66362C9.10596 3.646 9.10344 3.62838 9.10092 3.61076C9.09085 3.51764 9.08077 3.42703 9.07069 3.33391C9.07069 3.32384 9.07069 3.31377 9.06817 3.30622C9.03543 3.00922 8.99764 2.71223 8.9523 2.41272C8.90948 2.12831 8.86162 1.84642 8.80368 1.55949C8.79109 1.49908 8.77598 1.43616 8.76086 1.3682C8.713 1.17944 8.65003 0.957949 8.5795 0.723877H8.42332C8.10845 0.723877 7.83892 0.993186 7.72305 1.37575C7.27719 1.43616 6.92958 1.95968 6.92958 2.59897V3.21309C6.92958 3.25336 6.92958 3.29615 6.93462 3.33642H7.68779C7.56184 3.39179 7.47115 3.51764 7.47115 3.66362C7.47115 3.85994 7.62985 4.02102 7.82885 4.02102H7.95983V5.34743H7.82885C7.63237 5.34743 7.47115 5.50599 7.47115 5.70483C7.47115 5.90366 7.62985 6.06223 7.82885 6.06223H7.96487C7.96487 6.19814 7.96487 6.36174 7.96487 6.54547C7.96235 7.37102 7.93464 8.62695 7.82129 9.69915C7.80366 9.8552 7.78602 10.0062 7.76587 10.1522C7.69282 10.6757 7.59458 11.1288 7.46108 11.4182C6.86409 12.7119 5.07311 18.0804 4.77335 19.87C4.66503 20.5168 4.59702 24.2519 4.55168 28.7571C4.51893 32.0291 4.5013 35.7063 4.48871 38.8977C4.47359 43.4508 4.47359 47.0173 4.47359 47.0173C4.47359 47.0173 4.37535 49.1063 5.46858 50.4981H5.46606Z" fill="#CCCBC9"/>
</g>
<path d="M7.66235 1.78354V2.31209C7.66235 2.34733 7.66235 2.38256 7.66739 2.4178H16.6702C16.6727 2.38256 16.6752 2.34733 16.6752 2.31209V1.78354C16.6752 1.64008 16.655 1.50416 16.6173 1.37832C16.5039 0.995749 16.2319 0.72644 15.917 0.72644H8.42056C8.10569 0.72644 7.83616 0.995749 7.72029 1.37832C7.68251 1.50416 7.66235 1.64008 7.66235 1.78354Z" fill="#9F2929"/>
<path d="M6.92432 2.60154V3.21566C6.92432 3.25593 6.92432 3.29872 6.92935 3.33899H17.4032C17.4057 3.29872 17.4082 3.25845 17.4082 3.21566V2.60154C17.4082 1.96476 17.0581 1.43873 16.6148 1.37832C16.587 1.37329 16.5568 1.37329 16.5291 1.37329H7.80595C7.77824 1.37329 7.74802 1.37329 7.72031 1.37832C7.27445 1.43873 6.92684 1.96225 6.92684 2.60154H6.92432Z" fill="#9F2929"/>
<g style="mix-blend-mode:color-dodge" opacity="0.5">
<path d="M15.4459 0.729004H12.4609V3.33903H15.4459V0.729004Z" fill="#2A2184"/>
</g>
<g style="mix-blend-mode:color-dodge" opacity="0.5">
<path d="M10.8186 2.44552C10.8186 2.72238 11.0428 2.9489 11.3224 2.9489H16.2873C16.5643 2.9489 16.7911 2.7249 16.7911 2.44552C16.7911 2.16866 16.5669 1.94214 16.2873 1.94214H11.3224C11.0453 1.94214 10.8186 2.16614 10.8186 2.44552Z" fill="#2A2184"/>
</g>
<g style="mix-blend-mode:color-dodge" opacity="0.9">
<path d="M15.514 7.82406C15.446 8.73014 15.5065 9.64881 15.5896 10.5499C15.5795 10.4542 15.6072 10.726 15.6098 10.7562C15.6249 10.8896 15.6375 11.023 15.6526 11.1564C15.6803 11.393 15.708 11.6296 15.7382 11.8637C15.7962 12.3167 15.8566 12.7698 15.9196 13.2228C15.9725 13.623 15.844 14.0257 15.5443 14.139C15.2798 14.2396 14.9397 14.0182 14.8843 13.618C14.7583 12.6892 14.6324 11.763 14.5417 10.8267C14.446 9.83506 14.3629 8.82327 14.4384 7.82154C14.4687 7.41632 14.6601 7.07654 14.975 7.07654C15.2445 7.07654 15.5417 7.41632 15.5115 7.82154L15.514 7.82406Z" fill="white"/>
</g>
<g style="mix-blend-mode:color-dodge" opacity="0.9">
<path d="M17.6854 19.3742C17.8415 21.4305 18.0481 23.4742 17.8844 25.5406C17.8516 25.9458 17.5695 26.2856 17.1388 26.2856C16.7559 26.2856 16.3604 25.9458 16.3931 25.5406C16.5569 23.4767 16.3503 21.433 16.1941 19.3742C16.1639 18.9689 16.5569 18.6292 16.9398 18.6292C17.3705 18.6292 17.6551 18.9689 17.6854 19.3742Z" fill="white"/>
</g>
<path d="M22.2901 50.4981C23.3858 51.89 34.6607 51.89 35.7539 50.4981C36.8497 49.1063 36.7489 47.0172 36.7489 47.0172C36.7489 47.0172 36.7489 46.3427 36.7489 45.2051C36.7489 43.7956 36.7439 41.6764 36.7363 39.2526C36.7363 39.0185 36.7363 38.7844 36.7363 38.5453C36.7288 36.2348 36.7162 33.6953 36.696 31.2488C36.691 30.524 36.6859 29.8066 36.6784 29.1069C36.6356 24.4482 36.565 20.5369 36.4542 19.8724C36.1544 18.0829 34.3635 12.7118 33.7665 11.4207C33.6304 11.1237 33.5297 10.6606 33.4566 10.1219C32.3055 10.1849 30.5976 10.2251 28.6908 10.2251C27.789 10.2251 26.9325 10.2151 26.1567 10.2C25.5849 10.1874 25.0559 10.1723 24.5899 10.1522C24.5168 10.6757 24.4186 11.1287 24.2851 11.4182C23.6881 12.7118 21.8971 18.0804 21.5974 19.8699C21.4891 20.5168 21.421 24.2518 21.3757 28.7571C21.343 32.0291 21.3253 35.7063 21.3152 38.8977C21.3001 43.4508 21.3001 47.0172 21.3001 47.0172C21.3001 47.0172 21.2019 49.1063 22.2951 50.4981H22.2901Z" fill="#FCF7F0"/>
<path d="M24.5849 10.1522C25.0534 10.1724 25.5799 10.1875 26.1517 10.2001C26.9275 10.2177 27.784 10.2252 28.6858 10.2252C30.5926 10.2252 32.3005 10.185 33.4516 10.122C33.434 9.99619 33.4189 9.86531 33.4038 9.73192C33.2879 8.65217 33.2602 7.38113 33.2577 6.54803C33.2577 6.36178 33.2577 6.19819 33.2577 6.06479C33.2577 5.93391 33.2602 5.8282 33.2602 5.75773C33.2602 5.68977 33.2602 5.65453 33.2602 5.65453V3.56551L30.973 3.6687L29.0158 3.75679L27.0585 3.6687L25.9174 3.61584L24.7713 3.56299V5.65202C24.7713 5.65202 24.7713 5.68725 24.7713 5.75521C24.7713 5.82568 24.7713 5.93139 24.7738 6.06227C24.7738 6.19819 24.7738 6.36178 24.7738 6.54552C24.7713 7.37106 24.7436 8.627 24.6302 9.6992C24.6126 9.85524 24.595 10.0063 24.5748 10.1522H24.5849Z" fill="#CCCBC9"/>
<path d="M24.5848 10.1522C25.0533 10.1723 25.5798 10.1874 26.1516 10.2C26.9274 10.2176 27.7839 10.2252 28.6857 10.2252C30.5925 10.2252 32.3004 10.1849 33.4515 10.122C33.4339 9.99613 33.4188 9.86525 33.4037 9.73186C32.255 9.66893 30.5673 9.62866 28.6857 9.62866C27.804 9.62866 26.9627 9.63621 26.1994 9.65383C25.6302 9.66642 25.1037 9.68152 24.6377 9.69914C24.6201 9.85518 24.6024 10.0062 24.5823 10.1522H24.5848Z" fill="#EDE9E2"/>
<path d="M33.2651 3.66614H24.7762V4.45645H33.2651V3.66614Z" fill="#A8A59E"/>
<path d="M24.7838 6.06219C24.7838 6.1981 24.7838 6.3617 24.7838 6.54543H33.2601C33.2601 6.35918 33.2601 6.19559 33.2601 6.06219C33.2601 5.93131 33.2627 5.8256 33.2627 5.75513H24.7788C24.7788 5.8256 24.7788 5.93131 24.7813 6.06219H24.7838Z" fill="#A8A59E"/>
<path d="M24.2902 5.70486C24.2902 5.90118 24.4489 6.06226 24.6479 6.06226H33.5297C33.7262 6.06226 33.8874 5.90369 33.8874 5.70486C33.8874 5.6067 33.8471 5.51609 33.7841 5.45317C33.7186 5.38773 33.6305 5.34998 33.5322 5.34998H24.6504C24.4539 5.34998 24.2927 5.50854 24.2927 5.70738L24.2902 5.70486Z" fill="#CCCBC9"/>
<path d="M24.2902 3.66616C24.2902 3.86248 24.4489 4.02356 24.6479 4.02356H33.5297C33.7262 4.02356 33.8874 3.865 33.8874 3.66616C33.8874 3.568 33.8471 3.47991 33.7841 3.41447C33.7514 3.38175 33.7136 3.35658 33.6733 3.33897C33.6305 3.32135 33.5826 3.31128 33.5322 3.31128H24.6504C24.6 3.31128 24.5521 3.32135 24.5093 3.33897C24.3834 3.39434 24.2927 3.52018 24.2927 3.66616H24.2902Z" fill="#CCCBC9"/>
<g style="mix-blend-mode:multiply">
<path d="M22.2901 50.4981C23.3858 51.89 34.6607 51.89 35.7539 50.4981C36.8497 49.1063 36.7489 47.0173 36.7489 47.0173C36.7489 47.0173 36.7489 46.3427 36.7489 45.2051C33.3962 46.7958 29.5522 46.9267 27.0887 43.4584C26.9602 43.2772 26.8343 43.0859 26.7159 42.887C26.2877 42.1747 25.9275 41.4197 25.6252 40.6319C24.3884 37.4228 24.0937 33.6802 24.0181 30.1767C24.003 29.4191 23.9954 28.6716 23.9929 27.9442C23.9929 27.7 23.9929 27.4609 23.9929 27.2218C23.9828 22.2761 24.537 17.0384 25.7511 12.4199C25.9476 11.6724 26.0786 10.935 26.1567 10.1975C26.1768 10.0163 26.192 9.83255 26.2045 9.65133C26.2801 8.62192 26.2625 7.5925 26.1919 6.54296C26.1819 6.38187 26.1693 6.22079 26.1567 6.05971C26.1491 5.95652 26.1391 5.85584 26.1315 5.75265C26.1189 5.61925 26.1063 5.48334 26.0937 5.34743C26.0862 5.27947 26.0811 5.21151 26.0736 5.14356C26.0509 4.912 26.0282 4.68297 26.0081 4.45644C25.993 4.31046 25.9804 4.167 25.9652 4.02102C25.9526 3.90273 25.9426 3.78191 25.93 3.66362C25.93 3.646 25.9275 3.62838 25.9249 3.61076C25.9149 3.51764 25.9048 3.42703 25.8947 3.33391C25.8947 3.32384 25.8947 3.31377 25.8922 3.30622C25.8594 3.00922 25.8217 2.71223 25.7763 2.41272C25.7335 2.12831 25.6856 1.84642 25.6277 1.55949C25.6151 1.49908 25.6 1.43616 25.5849 1.3682C25.537 1.17944 25.474 0.957949 25.4035 0.723877H25.2473C24.9325 0.723877 24.6629 0.993186 24.5471 1.37575C24.1012 1.43616 23.7536 1.95968 23.7536 2.59897V3.21309C23.7536 3.25336 23.7536 3.29615 23.7586 3.33642H24.5118C24.3859 3.39179 24.2952 3.51764 24.2952 3.66362C24.2952 3.85994 24.4539 4.02102 24.6529 4.02102H24.7839V5.34743H24.6529C24.4564 5.34743 24.2952 5.50599 24.2952 5.70483C24.2952 5.90366 24.4539 6.06223 24.6529 6.06223H24.7889C24.7889 6.19814 24.7889 6.36174 24.7889 6.54547C24.7864 7.37102 24.7587 8.62695 24.6453 9.69915C24.6277 9.8552 24.61 10.0062 24.5899 10.1522C24.5168 10.6757 24.4186 11.1288 24.2851 11.4182C23.6881 12.7119 21.8971 18.0804 21.5974 19.87C21.4891 20.5168 21.421 24.2519 21.3757 28.7571C21.343 32.0291 21.3253 35.7063 21.3152 38.8977C21.3001 43.4508 21.3001 47.0173 21.3001 47.0173C21.3001 47.0173 21.2019 49.1063 22.2951 50.4981H22.2901Z" fill="#CCCBC9"/>
</g>
<path d="M24.4866 1.78354V2.31209C24.4866 2.34733 24.4866 2.38256 24.4916 2.4178H33.4944C33.4969 2.38256 33.4994 2.34733 33.4994 2.31209V1.78354C33.4994 1.64008 33.4793 1.50416 33.4415 1.37832C33.3281 0.995749 33.0561 0.72644 32.7412 0.72644H25.2448C24.9299 0.72644 24.6604 0.995749 24.5445 1.37832C24.5067 1.50416 24.4866 1.64008 24.4866 1.78354Z" fill="#9F2929"/>
<path d="M23.7485 2.60154V3.21566C23.7485 3.25593 23.7485 3.29872 23.7536 3.33899H34.2299C34.2324 3.29872 34.235 3.25845 34.235 3.21566V2.60154C34.235 1.96476 33.8848 1.43873 33.4415 1.37832C33.4138 1.37329 33.3836 1.37329 33.3558 1.37329H24.6327C24.605 1.37329 24.5748 1.37329 24.547 1.37832C24.1012 1.43873 23.7536 1.96225 23.7536 2.60154H23.7485Z" fill="#9F2929"/>
<g style="mix-blend-mode:color-dodge" opacity="0.5">
<path d="M32.2701 0.729004H29.2852V3.33903H32.2701V0.729004Z" fill="#2A2184"/>
</g>
<g style="mix-blend-mode:color-dodge" opacity="0.5">
<path d="M27.6428 2.44552C27.6428 2.72238 27.867 2.9489 28.1466 2.9489H33.1115C33.3886 2.9489 33.6153 2.7249 33.6153 2.44552C33.6153 2.16866 33.3911 1.94214 33.1115 1.94214H28.1466C27.8695 1.94214 27.6428 2.16614 27.6428 2.44552Z" fill="#2A2184"/>
</g>
<g style="mix-blend-mode:color-dodge" opacity="0.9">
<path d="M32.3357 7.82406C32.2677 8.73014 32.3281 9.64881 32.4113 10.5499C32.4037 10.4542 32.4289 10.726 32.4314 10.7562C32.4465 10.8896 32.4591 11.023 32.4742 11.1564C32.5019 11.393 32.5296 11.6296 32.5599 11.8637C32.6178 12.3167 32.6783 12.7698 32.7412 13.2228C32.7941 13.623 32.6657 14.0257 32.3659 14.139C32.1014 14.2396 31.7614 14.0182 31.7059 13.618C31.58 12.6892 31.4541 11.763 31.3634 10.8267C31.2677 9.83506 31.1845 8.82327 31.2601 7.82154C31.2903 7.41632 31.4818 7.07654 31.7966 7.07654C32.0662 7.07654 32.3634 7.41632 32.3332 7.82154L32.3357 7.82406Z" fill="white"/>
</g>
<g style="mix-blend-mode:color-dodge" opacity="0.9">
<path d="M34.5096 19.3742C34.6658 21.4305 34.8723 23.4742 34.7086 25.5406C34.6758 25.9458 34.3937 26.2856 33.963 26.2856C33.5801 26.2856 33.1846 25.9458 33.2174 25.5406C33.3811 23.4767 33.1745 21.433 33.0184 19.3742C32.9881 18.9689 33.3811 18.6292 33.764 18.6292C34.1947 18.6292 34.4794 18.9689 34.5096 19.3742Z" fill="white"/>
</g>
<path d="M39.1116 50.4981C40.2073 51.89 51.4822 51.89 52.5754 50.4981C53.6712 49.1063 53.5704 47.0172 53.5704 47.0172C53.5704 47.0172 53.5704 46.3427 53.5704 45.2051C53.5704 43.7956 53.5654 41.6764 53.5578 39.2526C53.5578 39.0185 53.5578 38.7844 53.5553 38.5453C53.5478 36.2348 53.5352 33.6953 53.515 31.2488C53.51 30.524 53.5024 29.8066 53.4974 29.1069C53.4545 24.4482 53.384 20.5369 53.2732 19.8724C52.9734 18.0829 51.1824 12.7118 50.5855 11.4207C50.4494 11.1237 50.3487 10.6606 50.2756 10.1219C49.1245 10.1849 47.4166 10.2251 45.5098 10.2251C44.608 10.2251 43.7515 10.2151 42.9757 10.2C42.4039 10.1874 41.8749 10.1723 41.4089 10.1522C41.3358 10.6757 41.2376 11.1287 41.1041 11.4182C40.5071 12.7118 38.7161 18.0804 38.4164 19.8699C38.3081 20.5168 38.24 24.2518 38.1947 28.7571C38.1619 32.0291 38.1443 35.7063 38.1342 38.8977C38.1191 43.4508 38.1191 47.0172 38.1191 47.0172C38.1191 47.0172 38.0184 49.1063 39.1141 50.4981H39.1116Z" fill="#FCF7F0"/>
<path d="M41.4089 10.1522C41.8774 10.1724 42.4039 10.1875 42.9757 10.2001C43.7515 10.2177 44.608 10.2252 45.5097 10.2252C47.4166 10.2252 49.1245 10.185 50.2756 10.122C50.258 9.99619 50.2429 9.86531 50.2278 9.73192C50.1119 8.65217 50.0842 7.38113 50.0817 6.54803C50.0817 6.36178 50.0817 6.19819 50.0817 6.06479C50.0817 5.93391 50.0842 5.8282 50.0842 5.75773C50.0842 5.68977 50.0842 5.65453 50.0842 5.65453V3.56551L47.797 3.6687L45.8397 3.75679L43.8825 3.6687L42.7414 3.61584L41.5953 3.56299V5.65202C41.5953 5.65202 41.5953 5.68725 41.5953 5.75521C41.5953 5.82568 41.5953 5.93139 41.5978 6.06227C41.5978 6.19819 41.5978 6.36178 41.5978 6.54552C41.5953 7.37106 41.5676 8.627 41.4542 9.6992C41.4366 9.85524 41.419 10.0063 41.3988 10.1522H41.4089Z" fill="#CCCBC9"/>
<path d="M41.4089 10.1522C41.8774 10.1723 42.4039 10.1874 42.9757 10.2C43.7515 10.2176 44.608 10.2252 45.5098 10.2252C47.4166 10.2252 49.1245 10.1849 50.2756 10.122C50.258 9.99613 50.2429 9.86525 50.2278 9.73186C49.0791 9.66893 47.3914 9.62866 45.5098 9.62866C44.6281 9.62866 43.7868 9.63621 43.0235 9.65383C42.4543 9.66642 41.9278 9.68152 41.4618 9.69914C41.4442 9.85518 41.4265 10.0062 41.4064 10.1522H41.4089Z" fill="#EDE9E2"/>
<path d="M50.0892 3.66614H41.6003V4.45645H50.0892V3.66614Z" fill="#A8A59E"/>
<path d="M41.6054 6.06219C41.6054 6.1981 41.6054 6.3617 41.6054 6.54543H50.0817C50.0817 6.35918 50.0817 6.19559 50.0817 6.06219C50.0817 5.93131 50.0842 5.8256 50.0842 5.75513H41.6003C41.6003 5.8256 41.6003 5.93131 41.6029 6.06219H41.6054Z" fill="#A8A59E"/>
<path d="M41.1117 5.70486C41.1117 5.90118 41.2704 6.06226 41.4694 6.06226H50.3512C50.5477 6.06226 50.7089 5.90369 50.7089 5.70486C50.7089 5.6067 50.6686 5.51609 50.6057 5.45317C50.5402 5.38773 50.452 5.34998 50.3538 5.34998H41.4719C41.2754 5.34998 41.1142 5.50854 41.1142 5.70738L41.1117 5.70486Z" fill="#CCCBC9"/>
<path d="M41.1117 3.66616C41.1117 3.86248 41.2704 4.02356 41.4694 4.02356H50.3512C50.5477 4.02356 50.7089 3.865 50.7089 3.66616C50.7089 3.568 50.6686 3.47991 50.6057 3.41447C50.5729 3.38175 50.5351 3.35658 50.4948 3.33897C50.452 3.32135 50.4041 3.31128 50.3538 3.31128H41.4719C41.4215 3.31128 41.3737 3.32135 41.3308 3.33897C41.2049 3.39434 41.1142 3.52018 41.1142 3.66616H41.1117Z" fill="#CCCBC9"/>
<g style="mix-blend-mode:multiply">
<path d="M39.1118 50.4981C40.2075 51.89 51.4824 51.89 52.5756 50.4981C53.6714 49.1063 53.5706 47.0173 53.5706 47.0173C53.5706 47.0173 53.5706 46.3427 53.5706 45.2051C50.2179 46.7958 46.3739 46.9267 43.9104 43.4584C43.7819 43.2772 43.656 43.0859 43.5376 42.887C43.1094 42.1747 42.7491 41.4197 42.4469 40.6319C41.2101 37.4228 40.9153 33.6802 40.8398 30.1767C40.8247 29.4191 40.8171 28.6716 40.8146 27.9442C40.8146 27.7 40.8146 27.4609 40.8146 27.2218C40.8045 22.2761 41.3587 17.0384 42.5728 12.4199C42.7693 11.6724 42.9003 10.935 42.9784 10.1975C42.9985 10.0163 43.0136 9.83255 43.0262 9.65133C43.1018 8.62192 43.0842 7.5925 43.0136 6.54296C43.0036 6.38187 42.991 6.22079 42.9784 6.05971C42.9708 5.95652 42.9607 5.85584 42.9532 5.75265C42.9406 5.61925 42.928 5.48334 42.9154 5.34743C42.9078 5.27947 42.9028 5.21151 42.8952 5.14356C42.8726 4.912 42.8499 4.68297 42.8298 4.45644C42.8146 4.31046 42.802 4.167 42.7869 4.02102C42.7743 3.90273 42.7643 3.78191 42.7517 3.66362C42.7517 3.646 42.7491 3.62838 42.7466 3.61076C42.7365 3.51764 42.7265 3.42703 42.7164 3.33391C42.7164 3.32384 42.7164 3.31377 42.7139 3.30622C42.6811 3.00922 42.6433 2.71223 42.598 2.41272C42.5552 2.12831 42.5073 1.84642 42.4494 1.55949C42.4368 1.49908 42.4217 1.43616 42.4066 1.3682C42.3587 1.17944 42.2957 0.957949 42.2252 0.723877H42.069C41.7542 0.723877 41.4846 0.993186 41.3688 1.37575C40.9229 1.43616 40.5753 1.95968 40.5753 2.59897V3.21309C40.5753 3.25336 40.5753 3.29615 40.5803 3.33642H41.3335C41.2075 3.39179 41.1169 3.51764 41.1169 3.66362C41.1169 3.85994 41.2756 4.02102 41.4746 4.02102H41.6055V5.34743H41.4746C41.2781 5.34743 41.1169 5.50599 41.1169 5.70483C41.1169 5.90366 41.2756 6.06223 41.4746 6.06223H41.6106C41.6106 6.19814 41.6106 6.36174 41.6106 6.54547C41.6081 7.37102 41.5803 8.62695 41.467 9.69915C41.4494 9.8552 41.4317 10.0062 41.4116 10.1522C41.3385 10.6757 41.2403 11.1288 41.1068 11.4182C40.5098 12.7119 38.7188 18.0804 38.4191 19.87C38.3107 20.5168 38.2427 24.2519 38.1974 28.7571C38.1646 32.0291 38.147 35.7063 38.1369 38.8977C38.1218 43.4508 38.1218 47.0173 38.1218 47.0173C38.1218 47.0173 38.0211 49.1063 39.1168 50.4981H39.1118Z" fill="#CCCBC9"/>
</g>
<path d="M41.3082 1.78354V2.31209C41.3082 2.34733 41.3082 2.38256 41.3133 2.4178H50.316C50.3185 2.38256 50.3211 2.34733 50.3211 2.31209V1.78354C50.3211 1.64008 50.3009 1.50416 50.2631 1.37832C50.1498 0.995749 49.8777 0.72644 49.5629 0.72644H42.0664C41.7516 0.72644 41.482 0.995749 41.3662 1.37832C41.3284 1.50416 41.3082 1.64008 41.3082 1.78354Z" fill="#9F2929"/>
<path d="M40.5726 2.60154V3.21566C40.5726 3.25593 40.5726 3.29872 40.5777 3.33899H51.054C51.0565 3.29872 51.0591 3.25845 51.0591 3.21566V2.60154C51.0591 1.96476 50.7114 1.43873 50.2656 1.37832C50.2379 1.37329 50.2077 1.37329 50.1799 1.37329H41.4568C41.4291 1.37329 41.3988 1.37329 41.3711 1.37832C40.9253 1.43873 40.5777 1.96225 40.5777 2.60154H40.5726Z" fill="#9F2929"/>
<g style="mix-blend-mode:color-dodge" opacity="0.5">
<path d="M49.0918 0.729004H46.1068V3.33903H49.0918V0.729004Z" fill="#2A2184"/>
</g>
<g style="mix-blend-mode:color-dodge" opacity="0.5">
<path d="M44.4669 2.44552C44.4669 2.72238 44.6911 2.9489 44.9707 2.9489H49.9356C50.2127 2.9489 50.4394 2.7249 50.4394 2.44552C50.4394 2.16866 50.2152 1.94214 49.9356 1.94214H44.9707C44.6936 1.94214 44.4669 2.16614 44.4669 2.44552Z" fill="#2A2184"/>
</g>
<g style="mix-blend-mode:color-dodge" opacity="0.9">
<path d="M49.1598 7.82406C49.0918 8.73014 49.1522 9.64881 49.2354 10.5499C49.2278 10.4542 49.253 10.726 49.2555 10.7562C49.2706 10.8896 49.2832 11.023 49.2983 11.1564C49.326 11.393 49.3537 11.6296 49.384 11.8637C49.4419 12.3167 49.5024 12.7698 49.5653 13.2228C49.6182 13.623 49.4898 14.0257 49.19 14.139C48.9255 14.2396 48.5855 14.0182 48.53 13.618C48.4041 12.6892 48.2782 11.763 48.1875 10.8267C48.0917 9.83506 48.0086 8.82327 48.0842 7.82154C48.1144 7.41632 48.3059 7.07654 48.6207 7.07654C48.8903 7.07654 49.1875 7.41632 49.1573 7.82154L49.1598 7.82406Z" fill="white"/>
</g>
<g style="mix-blend-mode:color-dodge" opacity="0.9">
<path d="M51.3336 19.3742C51.4897 21.4305 51.6963 23.4742 51.5326 25.5406C51.4998 25.9458 51.2177 26.2856 50.7869 26.2856C50.4041 26.2856 50.0086 25.9458 50.0413 25.5406C50.2051 23.4767 49.9985 21.433 49.8423 19.3742C49.8121 18.9689 50.2051 18.6292 50.588 18.6292C51.0187 18.6292 51.3033 18.9689 51.3336 19.3742Z" fill="white"/>
</g>
<path d="M55.9358 50.4981C57.0315 51.89 68.3064 51.89 69.3996 50.4981C70.4954 49.1063 70.3946 47.0172 70.3946 47.0172C70.3946 47.0172 70.3946 46.3427 70.3946 45.2051C70.3946 43.7956 70.3896 41.6764 70.382 39.2526C70.382 39.0185 70.382 38.7844 70.382 38.5453C70.3745 36.2348 70.3619 33.6953 70.3417 31.2488C70.3367 30.524 70.3316 29.8066 70.3241 29.1069C70.2813 24.4482 70.2107 20.5369 70.0999 19.8724C69.8001 18.0829 68.0092 12.7118 67.4122 11.4207C67.2761 11.1237 67.1754 10.6606 67.1023 10.1219C65.9512 10.1849 64.2433 10.2251 62.3365 10.2251C61.4347 10.2251 60.5782 10.2151 59.8024 10.2C59.2306 10.1874 58.7016 10.1723 58.2356 10.1522C58.1626 10.6757 58.0643 11.1287 57.9308 11.4182C57.3338 12.7118 55.5428 18.0804 55.2431 19.8699C55.1348 20.5168 55.0667 24.2518 55.0214 28.7571C54.9887 32.0291 54.971 35.7063 54.9584 38.8977C54.9433 43.4508 54.9433 47.0172 54.9433 47.0172C54.9433 47.0172 54.8451 49.1063 55.9383 50.4981H55.9358Z" fill="#FCF7F0"/>
<path d="M58.2331 10.1522C58.7016 10.1724 59.2281 10.1875 59.7999 10.2001C60.5757 10.2177 61.4322 10.2252 62.334 10.2252C64.2408 10.2252 65.9487 10.185 67.0998 10.122C67.0822 9.99619 67.0671 9.86531 67.052 9.73192C66.9361 8.65217 66.9084 7.38113 66.9059 6.54803C66.9059 6.36178 66.9059 6.19819 66.9059 6.06479C66.9059 5.93391 66.9059 5.8282 66.9084 5.75773C66.9084 5.68977 66.9084 5.65453 66.9084 5.65453V3.56551L64.6212 3.6687L62.6639 3.75679L60.7067 3.6687L59.5656 3.61584L58.4195 3.56299V5.65202C58.4195 5.65202 58.4195 5.68725 58.4195 5.75521C58.4195 5.82568 58.4195 5.93139 58.422 6.06227C58.422 6.19819 58.422 6.36178 58.422 6.54552C58.4195 7.37106 58.3918 8.627 58.2784 9.6992C58.2608 9.85524 58.2432 10.0063 58.223 10.1522H58.2331Z" fill="#CCCBC9"/>
<path d="M58.2331 10.1522C58.7016 10.1723 59.2281 10.1874 59.7999 10.2C60.5757 10.2176 61.4322 10.2252 62.334 10.2252C64.2408 10.2252 65.9487 10.1849 67.0998 10.122C67.0822 9.99613 67.0671 9.86525 67.052 9.73186C65.9033 9.66893 64.2156 9.62866 62.334 9.62866C61.4523 9.62866 60.611 9.63621 59.8478 9.65383C59.2785 9.66642 58.752 9.68152 58.286 9.69914C58.2684 9.85518 58.2507 10.0062 58.2306 10.1522H58.2331Z" fill="#EDE9E2"/>
<path d="M66.9134 3.66614H58.4246V4.45645H66.9134V3.66614Z" fill="#A8A59E"/>
<path d="M58.4296 6.06219C58.4296 6.1981 58.4296 6.3617 58.4296 6.54543H66.9059C66.9059 6.35918 66.9059 6.19559 66.9059 6.06219C66.9059 5.93131 66.9059 5.8256 66.9084 5.75513H58.4246C58.4246 5.8256 58.4246 5.93131 58.4271 6.06219H58.4296Z" fill="#A8A59E"/>
<path d="M57.9358 5.70486C57.9358 5.90118 58.0945 6.06226 58.2935 6.06226H67.1753C67.3718 6.06226 67.533 5.90369 67.533 5.70486C67.533 5.6067 67.4927 5.51609 67.4297 5.45317C67.3643 5.38773 67.2761 5.34998 67.1779 5.34998H58.296C58.0995 5.34998 57.9383 5.50854 57.9383 5.70738L57.9358 5.70486Z" fill="#CCCBC9"/>
<path d="M57.9358 3.66616C57.9358 3.86248 58.0945 4.02356 58.2935 4.02356H67.1753C67.3718 4.02356 67.533 3.865 67.533 3.66616C67.533 3.568 67.4927 3.47991 67.4297 3.41447C67.397 3.38175 67.3592 3.35658 67.3189 3.33897C67.2761 3.32135 67.2282 3.31128 67.1779 3.31128H58.296C58.2456 3.31128 58.1978 3.32135 58.1549 3.33897C58.029 3.39434 57.9383 3.52018 57.9383 3.66616H57.9358Z" fill="#CCCBC9"/>
<g style="mix-blend-mode:multiply">
<path d="M55.9358 50.4981C57.0315 51.89 68.3064 51.89 69.3996 50.4981C70.4954 49.1063 70.3946 47.0173 70.3946 47.0173C70.3946 47.0173 70.3946 46.3427 70.3946 45.2051C67.0419 46.7958 63.198 46.9267 60.7344 43.4584C60.6059 43.2772 60.48 43.0859 60.3616 42.887C59.9334 42.1747 59.5732 41.4197 59.2709 40.6319C58.0341 37.4228 57.7394 33.6802 57.6638 30.1767C57.6487 29.4191 57.6436 28.6716 57.6386 27.9442C57.6386 27.7 57.6386 27.4609 57.6386 27.2218C57.6285 22.2761 58.1827 17.0384 59.3968 12.4199C59.5933 11.6724 59.7243 10.935 59.8024 10.1975C59.8225 10.0163 59.8377 9.83255 59.8503 9.65133C59.9258 8.62192 59.9082 7.5925 59.8377 6.54296C59.8276 6.38187 59.815 6.22079 59.8024 6.05971C59.7948 5.95652 59.7848 5.85584 59.7772 5.75265C59.7646 5.61925 59.752 5.48334 59.7394 5.34743C59.7319 5.27947 59.7268 5.21151 59.7193 5.14356C59.6966 4.912 59.6739 4.68297 59.6538 4.45644C59.6387 4.31046 59.6261 4.167 59.611 4.02102C59.5984 3.90273 59.5883 3.78191 59.5757 3.66362C59.5757 3.646 59.5732 3.62838 59.5706 3.61076C59.5606 3.51764 59.5505 3.42703 59.5404 3.33391C59.5404 3.32384 59.5404 3.31377 59.5379 3.30622C59.5052 3.00922 59.4674 2.71223 59.422 2.41272C59.3792 2.12831 59.3313 1.84642 59.2734 1.55949C59.2608 1.49908 59.2457 1.43616 59.2306 1.3682C59.1827 1.17944 59.1198 0.957949 59.0492 0.723877H58.893C58.5782 0.723877 58.3086 0.993186 58.1928 1.37575C57.7469 1.43616 57.3993 1.95968 57.3993 2.59897V3.21309C57.3993 3.25336 57.3993 3.29615 57.4043 3.33642H58.1575C58.0316 3.39179 57.9409 3.51764 57.9409 3.66362C57.9409 3.85994 58.0996 4.02102 58.2986 4.02102H58.4296V5.34743H58.2986C58.1021 5.34743 57.9409 5.50599 57.9409 5.70483C57.9409 5.90366 58.0996 6.06223 58.2986 6.06223H58.4346C58.4346 6.19814 58.4346 6.36174 58.4346 6.54547C58.4321 7.37102 58.4044 8.62695 58.291 9.69915C58.2734 9.8552 58.2558 10.0062 58.2356 10.1522C58.1626 10.6757 58.0643 11.1288 57.9308 11.4182C57.3338 12.7119 55.5428 18.0804 55.2431 19.87C55.1348 20.5168 55.0667 24.2519 55.0214 28.7571C54.9887 32.0291 54.971 35.7063 54.9584 38.8977C54.9433 43.4508 54.9433 47.0173 54.9433 47.0173C54.9433 47.0173 54.8451 49.1063 55.9383 50.4981H55.9358Z" fill="#CCCBC9"/>
</g>
<path d="M58.1323 1.78354V2.31209C58.1323 2.34733 58.1323 2.38256 58.1374 2.4178H67.1401C67.1426 2.38256 67.1452 2.34733 67.1452 2.31209V1.78354C67.1452 1.64008 67.125 1.50416 67.0872 1.37832C66.9739 0.995749 66.7018 0.72644 66.387 0.72644H58.8905C58.5757 0.72644 58.3061 0.995749 58.1903 1.37832C58.1525 1.50416 58.1323 1.64008 58.1323 1.78354Z" fill="#9F2929"/>
<path d="M57.3943 2.60154V3.21566C57.3943 3.25593 57.3943 3.29872 57.3993 3.33899H67.8757C67.8782 3.29872 67.8807 3.25845 67.8807 3.21566V2.60154C67.8807 1.96476 67.5331 1.43873 67.0872 1.37832C67.0595 1.37329 67.0293 1.37329 67.0016 1.37329H58.2784C58.2507 1.37329 58.2205 1.37329 58.1928 1.37832C57.7469 1.43873 57.3993 1.96225 57.3993 2.60154H57.3943Z" fill="#9F2929"/>
<g style="mix-blend-mode:color-dodge" opacity="0.5">
<path d="M65.9159 0.729004H62.9309V3.33903H65.9159V0.729004Z" fill="#2A2184"/>
</g>
<g style="mix-blend-mode:color-dodge" opacity="0.5">
<path d="M61.2886 2.44552C61.2886 2.72238 61.5128 2.9489 61.7924 2.9489H66.7572C67.0343 2.9489 67.261 2.7249 67.261 2.44552C67.261 2.16866 67.0368 1.94214 66.7572 1.94214H61.7924C61.5153 1.94214 61.2886 2.16614 61.2886 2.44552Z" fill="#2A2184"/>
</g>
<g style="mix-blend-mode:color-dodge" opacity="0.9">
<path d="M65.9839 7.82406C65.9159 8.73014 65.9763 9.64881 66.0595 10.5499C66.0519 10.4542 66.0771 10.726 66.0796 10.7562C66.0947 10.8896 66.1073 11.023 66.1224 11.1564C66.1501 11.393 66.1778 11.6296 66.2081 11.8637C66.266 12.3167 66.3265 12.7698 66.3894 13.2228C66.4423 13.623 66.3139 14.0257 66.0141 14.139C65.7496 14.2396 65.4096 14.0182 65.3541 13.618C65.2282 12.6892 65.1022 11.763 65.0116 10.8267C64.9158 9.83506 64.8327 8.82327 64.9083 7.82154C64.9385 7.41632 65.13 7.07654 65.4448 7.07654C65.7144 7.07654 66.0116 7.41632 65.9814 7.82154L65.9839 7.82406Z" fill="white"/>
</g>
<g style="mix-blend-mode:color-dodge" opacity="0.9">
<path d="M68.1552 19.3742C68.3114 21.4305 68.5179 23.4742 68.3542 25.5406C68.3215 25.9458 68.0393 26.2856 67.6086 26.2856C67.2257 26.2856 66.8302 25.9458 66.863 25.5406C67.0267 23.4767 66.8202 21.433 66.664 19.3742C66.6338 18.9689 67.0267 18.6292 67.4096 18.6292C67.8403 18.6292 68.125 18.9689 68.1552 19.3742Z" fill="white"/>
</g>
<path d="M55.7817 23.2577H0.778076V30.5265H55.7817V23.2577Z" fill="#843317"/>
<path d="M75.5676 23.2577H42.1975V30.5265H75.5676V23.2577Z" fill="#B26546"/>
<path d="M4.30008 26.8921C4.30008 27.5616 3.8486 28.1028 3.29469 28.1028C2.74079 28.1028 2.28931 27.5591 2.28931 26.8921C2.28931 26.2252 2.74079 25.6815 3.29469 25.6815C3.8486 25.6815 4.30008 26.2227 4.30008 26.8921Z" fill="#6D2411"/>
<path d="M74.0605 26.8921C74.0605 27.5616 73.609 28.1028 73.0551 28.1028C72.5012 28.1028 72.0497 27.5591 72.0497 26.8921C72.0497 26.2252 72.5012 25.6815 73.0551 25.6815C73.609 25.6815 74.0605 26.2227 74.0605 26.8921Z" fill="#6D2411"/>
<path d="M45.8867 26.8921C45.8867 27.5616 45.4353 28.1028 44.8814 28.1028C44.3275 28.1028 43.876 27.5591 43.876 26.8921C43.876 26.2252 44.3275 25.6815 44.8814 25.6815C45.4353 25.6815 45.8867 26.2227 45.8867 26.8921Z" fill="#6D2411"/>
<path d="M40.5211 26.8921C40.5211 27.5616 40.0697 28.1028 39.5158 28.1028C38.9619 28.1028 38.5104 27.5591 38.5104 26.8921C38.5104 26.2252 38.9619 25.6815 39.5158 25.6815C40.0697 25.6815 40.5211 26.2227 40.5211 26.8921Z" fill="#6D2411"/>
<path d="M55.7817 33.8589H0.778076V41.1277H55.7817V33.8589Z" fill="#843317"/>
<path d="M75.5676 33.8589H42.1975V41.1277H75.5676V33.8589Z" fill="#B26546"/>
<path d="M4.30008 37.4933C4.30008 38.1628 3.8486 38.704 3.29469 38.704C2.74079 38.704 2.28931 38.1603 2.28931 37.4933C2.28931 36.8264 2.74079 36.2827 3.29469 36.2827C3.8486 36.2827 4.30008 36.8264 4.30008 37.4933Z" fill="#6D2411"/>
<path d="M74.0605 37.4933C74.0605 38.1628 73.609 38.704 73.0551 38.704C72.5012 38.704 72.0497 38.1603 72.0497 37.4933C72.0497 36.8264 72.5012 36.2827 73.0551 36.2827C73.609 36.2827 74.0605 36.8264 74.0605 37.4933Z" fill="#6D2411"/>
<path d="M45.8867 37.4933C45.8867 38.1628 45.4353 38.704 44.8814 38.704C44.3275 38.704 43.876 38.1603 43.876 37.4933C43.876 36.8264 44.3275 36.2827 44.8814 36.2827C45.4353 36.2827 45.8867 36.8264 45.8867 37.4933Z" fill="#6D2411"/>
<path d="M40.5211 37.4933C40.5211 38.1628 40.0697 38.704 39.5158 38.704C38.9619 38.704 38.5104 38.1603 38.5104 37.4933C38.5104 36.8264 38.9619 36.2827 39.5158 36.2827C40.0697 36.2827 40.5211 36.8264 40.5211 37.4933Z" fill="#6D2411"/>
<path d="M55.7817 44.4601H0.778076V51.7289H55.7817V44.4601Z" fill="#843317"/>
<path d="M75.5676 44.4601H42.1975V51.7289H75.5676V44.4601Z" fill="#B26546"/>
<path d="M4.30008 48.0945C4.30008 48.764 3.8486 49.3051 3.29469 49.3051C2.74079 49.3051 2.28931 48.7615 2.28931 48.0945C2.28931 47.4275 2.74079 46.8839 3.29469 46.8839C3.8486 46.8839 4.30008 47.425 4.30008 48.0945Z" fill="#6D2411"/>
<path d="M74.0605 48.0945C74.0605 48.764 73.609 49.3051 73.0551 49.3051C72.5012 49.3051 72.0497 48.7615 72.0497 48.0945C72.0497 47.4275 72.5012 46.8839 73.0551 46.8839C73.609 46.8839 74.0605 47.425 74.0605 48.0945Z" fill="#6D2411"/>
<path d="M45.8867 48.0945C45.8867 48.764 45.4353 49.3051 44.8814 49.3051C44.3275 49.3051 43.876 48.7615 43.876 48.0945C43.876 47.4275 44.3275 46.8839 44.8814 46.8839C45.4353 46.8839 45.8867 47.425 45.8867 48.0945Z" fill="#6D2411"/>
<path d="M40.5211 48.0945C40.5211 48.764 40.0697 49.3051 39.5158 49.3051C38.9619 49.3051 38.5104 48.7615 38.5104 48.0945C38.5104 47.4275 38.9619 46.8839 39.5158 46.8839C40.0697 46.8839 40.5211 47.425 40.5211 48.0945Z" fill="#6D2411"/>
<path d="M24.4228 26.5901V26.9928C24.4228 28.1078 23.8083 29.0113 23.0475 29.0113H8.61046C8.45996 29.0113 8.31574 28.9761 8.17988 28.9107C7.63016 28.6464 7.23511 27.8888 7.23511 26.9928V26.5901C7.23511 25.4751 7.84963 24.5715 8.61046 24.5715H23.0496C23.8083 24.5715 24.4249 25.4751 24.4249 26.5901H24.4228Z" fill="#6D2411"/>
<path d="M20.0623 26.5372V26.9399C20.0623 28.0549 19.3119 28.9585 18.386 28.9585H8.38646C7.71759 28.6942 7.23267 27.9366 7.23267 27.0406V26.6354C7.23267 25.5204 7.98305 24.6168 8.90901 24.6168H18.9085C19.5795 24.8811 20.0623 25.6387 20.0623 26.5347V26.5372Z" fill="#A04B33"/>
</svg>
