<svg width="81" height="60" viewBox="0 0 81 60" fill="none" xmlns="http://www.w3.org/2000/svg">
<g clip-path="url(#clip0_4_389)">
<path d="M42.5166 52.8578C50.4246 52.8578 56.8354 49.812 56.8354 46.0548C56.8354 42.2975 50.4246 39.2517 42.5166 39.2517C34.6086 39.2517 28.1978 42.2975 28.1978 46.0548C28.1978 49.812 34.6086 52.8578 42.5166 52.8578Z" fill="#F2A900"/>
<path d="M56.8323 43.2566H28.1947V46.0547H56.8323V43.2566Z" fill="#F2A900"/>
<path fill-rule="evenodd" clip-rule="evenodd" d="M42.5166 50.0596C50.4044 50.0596 56.8354 47.002 56.8354 43.2566C56.8354 39.5112 50.4044 36.4536 42.5166 36.4536C34.6288 36.4536 28.1978 39.5112 28.1978 43.2566C28.1978 47.002 34.6288 50.0596 42.5166 50.0596Z" fill="#F2A900"/>
<path fill-rule="evenodd" clip-rule="evenodd" d="M42.5166 48.7403C49.3709 48.7403 54.9646 46.2767 54.9646 43.2566C54.9646 40.2365 49.3741 37.7729 42.5166 37.7729C35.6592 37.7729 30.0686 40.2365 30.0686 43.2566C30.0686 46.2767 35.6592 48.7403 42.5166 48.7403Z" fill="#FFD573"/>
<path d="M43.9049 40.0333C44.4901 40.1114 44.9788 40.2365 45.371 40.4147C45.9157 40.6617 46.2613 40.9931 46.4138 41.4057L44.213 41.5433C44.1539 41.3964 44.0512 41.2713 43.9049 41.1681V40.0333ZM43.9049 42.6032C44.901 42.7657 45.6045 42.9627 46.0122 43.194C46.5165 43.4786 46.7686 43.8443 46.7686 44.2914C46.7686 44.7885 46.4511 45.2106 45.8192 45.5514C45.3274 45.8171 44.6893 46.0016 43.9049 46.1079V45.123C44.0232 45.0824 44.1321 45.0355 44.2317 44.9792C44.5056 44.826 44.6426 44.6447 44.6426 44.4384C44.6426 44.2539 44.5274 44.0945 44.2971 43.96C44.1944 43.9006 44.0636 43.8475 43.9049 43.8006V42.6V42.6032ZM41.9096 45.2106V43.4786C41.7135 43.4535 41.5267 43.4223 41.3493 43.391V42.1404C41.5049 42.203 41.6917 42.2561 41.9096 42.2999V40.868C41.6948 40.9024 41.508 40.9524 41.3493 41.0181V40.0114C41.5298 39.9926 41.7166 39.977 41.9096 39.9676V39.558H43.1703V39.9676C43.4317 39.9832 43.6776 40.0051 43.908 40.0364V41.1713C43.7275 41.0431 43.4815 40.9493 43.1703 40.8836V42.5C43.4317 42.5344 43.6776 42.5688 43.908 42.6063V43.8068C43.7088 43.7474 43.4629 43.6974 43.1703 43.6599V45.2731C43.4504 45.2481 43.6963 45.2012 43.908 45.1293V46.1141C43.6745 46.1454 43.4286 46.1704 43.1703 46.1891V46.9614H41.9096V46.2079C41.7166 46.1954 41.5298 46.1798 41.3493 46.161V45.0261C41.5236 45.1074 41.7104 45.1699 41.9096 45.2168V45.2106ZM41.3493 43.391C40.4933 43.2409 39.8458 43.0346 39.4069 42.7782C38.8777 42.4656 38.61 42.0842 38.61 41.6402C38.61 41.1963 38.9089 40.8086 39.5096 40.5022C39.9952 40.2552 40.6084 40.0927 41.3493 40.0114V41.0181C41.2528 41.0556 41.1687 41.0994 41.0909 41.1494C40.8886 41.2807 40.789 41.4276 40.789 41.5871C40.789 41.7309 40.8824 41.8685 41.066 41.9935C41.1438 42.0467 41.2403 42.0936 41.3524 42.1373V43.3879L41.3493 43.391ZM41.3493 46.1547C40.5991 46.0703 39.9703 45.9078 39.4629 45.667C38.8373 45.37 38.4388 44.9511 38.2645 44.4071L40.5369 44.2914C40.6302 44.5103 40.8046 44.701 41.0598 44.8604C41.1532 44.9198 41.2497 44.973 41.3493 45.0167V46.1516V46.1547Z" fill="#F2A900"/>
<path fill-rule="evenodd" clip-rule="evenodd" d="M52.1693 49.2343C60.0571 49.2343 66.4881 46.1766 66.4881 42.4312C66.4881 38.6858 60.0571 35.6282 52.1693 35.6282C44.2815 35.6282 37.8505 38.6858 37.8505 42.4312C37.8505 46.1766 44.2815 49.2343 52.1693 49.2343Z" fill="#F2A900"/>
<path d="M66.4881 39.6331H37.8505V42.4312H66.4881V39.6331Z" fill="#F2A900"/>
<path d="M52.1693 46.4362C60.0774 46.4362 66.4881 43.3903 66.4881 39.6331C66.4881 35.8759 60.0774 32.8301 52.1693 32.8301C44.2613 32.8301 37.8505 35.8759 37.8505 39.6331C37.8505 43.3903 44.2613 46.4362 52.1693 46.4362Z" fill="#F2A900"/>
<path d="M52.1693 45.1168C59.0442 45.1168 64.6173 42.6617 64.6173 39.6331C64.6173 36.6046 59.0442 34.1494 52.1693 34.1494C45.2945 34.1494 39.7213 36.6046 39.7213 39.6331C39.7213 42.6617 45.2945 45.1168 52.1693 45.1168Z" fill="#FFD573"/>
<path d="M53.5576 36.413C54.1428 36.4911 54.6315 36.6162 55.0237 36.7944C55.5684 37.0414 55.914 37.3728 56.0665 37.7854L53.8658 37.923C53.8066 37.7761 53.7039 37.651 53.5576 37.5478V36.413ZM53.5576 38.9829C54.5537 39.1454 55.2572 39.3424 55.6681 39.5737C56.1723 39.8583 56.4245 40.224 56.4245 40.6711C56.4245 41.1682 56.107 41.5903 55.4751 41.9311C54.9832 42.1968 54.3451 42.3813 53.5576 42.4876V41.5027C53.6759 41.4621 53.7848 41.4152 53.8844 41.3589C54.1584 41.2057 54.2953 41.0275 54.2953 40.8181C54.2953 40.6336 54.1801 40.4742 53.9498 40.3397C53.8471 40.2803 53.7163 40.2272 53.5576 40.1803V38.9797V38.9829ZM51.5623 41.5903V39.8582C51.3662 39.8332 51.1794 39.802 51.002 39.7707V38.5202C51.1576 38.5827 51.3444 38.6358 51.5623 38.6796V37.2477C51.3475 37.2821 51.1608 37.3321 51.002 37.3978V36.3911C51.1825 36.3723 51.3693 36.3567 51.5623 36.3473V35.9377H52.823V36.3473C53.0844 36.3629 53.3304 36.3848 53.5607 36.4161V37.551C53.3802 37.4228 53.1343 37.329 52.823 37.2633V38.8797C53.0844 38.9141 53.3304 38.9485 53.5607 38.986V40.1865C53.3615 40.1271 53.1156 40.0771 52.823 40.0396V41.6528C53.1031 41.6278 53.349 41.5809 53.5607 41.509V42.4938C53.3272 42.5251 53.0813 42.5501 52.823 42.5688V43.3411H51.5623V42.5876C51.3693 42.5751 51.1825 42.5626 51.002 42.5407V41.4058C51.1763 41.4871 51.3631 41.5496 51.5623 41.5934V41.5903ZM51.002 39.7707C50.146 39.6206 49.4985 39.4143 49.0596 39.1579C48.5305 38.8453 48.2628 38.4639 48.2628 38.0199C48.2628 37.576 48.5616 37.1883 49.1623 36.8819C49.6479 36.6349 50.2612 36.4724 51.002 36.3911V37.3978C50.9055 37.4353 50.8215 37.4791 50.7436 37.5291C50.5413 37.6604 50.4417 37.8073 50.4417 37.9668C50.4417 38.1106 50.5351 38.2482 50.7187 38.3732C50.7966 38.4264 50.8931 38.4733 51.002 38.517V39.7676V39.7707ZM51.002 42.5344C50.2518 42.45 49.623 42.2875 49.1157 42.0467C48.49 41.7497 48.0916 41.3308 47.9172 40.7868L50.1896 40.6711C50.2798 40.89 50.4573 41.0807 50.7125 41.2401C50.8059 41.2995 50.9024 41.3527 51.002 41.3996V42.5344Z" fill="#F2A900"/>
<path fill-rule="evenodd" clip-rule="evenodd" d="M40.5929 43.3723C48.4807 43.3723 54.9117 40.3146 54.9117 36.5692C54.9117 32.8238 48.4776 29.7662 40.5929 29.7662C32.7082 29.7662 26.2741 32.8207 26.2741 36.5661C26.2741 40.3115 32.7051 43.3691 40.5929 43.3691V43.3723Z" fill="#F2A900"/>
<path d="M54.9148 33.7711H26.2741V36.5692H54.9148V33.7711Z" fill="#F2A900"/>
<path d="M40.5929 40.5742C48.5009 40.5742 54.9117 37.5283 54.9117 33.7711C54.9117 30.0139 48.5009 26.9681 40.5929 26.9681C32.6848 26.9681 26.2741 30.0139 26.2741 33.7711C26.2741 37.5283 32.6848 40.5742 40.5929 40.5742Z" fill="#F2A900"/>
<path d="M40.5929 39.2548C47.4677 39.2548 53.0409 36.7997 53.0409 33.7711C53.0409 30.7426 47.4677 28.2874 40.5929 28.2874C33.7181 28.2874 28.1449 30.7426 28.1449 33.7711C28.1449 36.7997 33.7181 39.2548 40.5929 39.2548Z" fill="#FFD573"/>
<path d="M45.0504 37.2133L42.3391 37.7573L36.2225 34.2401L37.2062 33.5023C37.5766 33.5023 37.9532 33.4835 38.333 33.4491C38.7128 33.4147 39.0707 33.3553 39.4007 33.274C39.7306 33.1927 40.0232 33.0833 40.2754 32.9489C40.5275 32.8145 40.7112 32.6456 40.8326 32.4424H36.0171L36.7112 31.5983H40.873C40.7018 31.2638 40.3003 31.0136 39.6653 30.8448C39.0303 30.676 38.2303 30.5947 37.256 30.5947H36.014L36.7081 29.785H45.8535L45.2465 30.5947H42.2675C42.666 30.6979 42.9991 30.8292 43.2761 30.9918C43.5531 31.1543 43.743 31.3544 43.8582 31.5983H45.785L45.2496 32.4424H43.908C43.8208 32.73 43.6403 32.9802 43.3632 33.1865C43.0862 33.3928 42.7282 33.5679 42.2893 33.7086C41.8504 33.8493 41.3462 33.9618 40.7734 34.0494C40.2007 34.1369 39.5843 34.2026 38.9213 34.2495L45.0473 37.2102L45.0504 37.2133Z" fill="#F2A900"/>
<path d="M50.8401 38.4326C58.7482 38.4326 65.1589 35.3867 65.1589 31.6295C65.1589 27.8723 58.7482 24.8265 50.8401 24.8265C42.9321 24.8265 36.5214 27.8723 36.5214 31.6295C36.5214 35.3867 42.9321 38.4326 50.8401 38.4326Z" fill="#F2A900"/>
<path d="M65.1589 28.8345H36.5214V31.6327H65.1589V28.8345Z" fill="#F2A900"/>
<path d="M50.8401 35.6376C58.7482 35.6376 65.1589 32.5918 65.1589 28.8345C65.1589 25.0773 58.7482 22.0315 50.8401 22.0315C42.9321 22.0315 36.5214 25.0773 36.5214 28.8345C36.5214 32.5918 42.9321 35.6376 50.8401 35.6376Z" fill="#F2A900"/>
<path fill-rule="evenodd" clip-rule="evenodd" d="M50.8402 34.3151C57.6945 34.3151 63.2882 31.8515 63.2882 28.8314C63.2882 25.8113 57.6976 23.3477 50.8402 23.3477C43.9827 23.3477 38.3922 25.8113 38.3922 28.8314C38.3922 31.8515 43.9827 34.3151 50.8402 34.3151Z" fill="#FFD573"/>
<path d="M52.2284 25.6112C52.8136 25.6894 53.3023 25.8144 53.6945 25.9926C54.2393 26.2396 54.5848 26.571 54.7373 26.9837L52.5366 27.1212C52.4775 26.9743 52.3747 26.8493 52.2284 26.7461V25.6112ZM52.2284 28.1811C53.2245 28.3437 53.928 28.5406 54.3389 28.772C54.8432 29.0565 55.0953 29.4223 55.0953 29.8694C55.0953 30.3665 54.7778 30.7885 54.1459 31.1293C53.6572 31.395 53.016 31.5795 52.2315 31.6858V30.701C52.3498 30.6603 52.4588 30.6134 52.5584 30.5572C52.8323 30.404 52.9693 30.2226 52.9693 30.0163C52.9693 29.8318 52.8541 29.6724 52.6238 29.538C52.521 29.4786 52.3903 29.4254 52.2315 29.3785V28.178L52.2284 28.1811ZM50.2331 30.7885V29.0565C50.037 29.0284 49.8503 29.0002 49.6697 28.969V27.7184C49.8254 27.7809 50.0121 27.8341 50.2331 27.8778V26.4459C50.0184 26.4803 49.8316 26.5304 49.6697 26.596V25.5893C49.8503 25.5706 50.037 25.5549 50.2331 25.5455V25.136H51.4907V25.5455C51.7522 25.5612 51.9981 25.5831 52.2284 25.6143V26.7492C52.0479 26.621 51.802 26.5272 51.4907 26.4616V28.0779C51.7522 28.1123 51.9981 28.1467 52.2284 28.1842V29.3848C52.0292 29.3254 51.7833 29.2753 51.4907 29.2378V30.851C51.7708 30.826 52.0168 30.7791 52.2284 30.7072V31.692C51.995 31.7233 51.7491 31.7483 51.4907 31.7671V32.5393H50.2331V31.7858C50.0401 31.7733 49.8503 31.7577 49.6697 31.7389V30.6041C49.844 30.6853 50.0308 30.7479 50.2331 30.7948V30.7885ZM49.6697 28.969C48.8137 28.8189 48.1663 28.6125 47.7273 28.3562C47.1982 28.0435 46.9305 27.6621 46.9305 27.2182C46.9305 26.7742 47.2293 26.3865 47.8301 26.0802C48.3157 25.8332 48.9289 25.6706 49.6697 25.5924V26.5991C49.5732 26.6367 49.4892 26.6804 49.4114 26.7304C49.209 26.8618 49.1063 27.0087 49.1063 27.1681C49.1063 27.312 49.1997 27.4495 49.3833 27.5746C49.4612 27.6277 49.5577 27.6746 49.6666 27.7184V28.969H49.6697ZM49.6697 31.7327C48.9195 31.6483 48.2908 31.4857 47.7834 31.245C47.1577 30.948 46.7593 30.529 46.585 29.985L48.8573 29.8694C48.9507 30.0882 49.125 30.2789 49.3802 30.4384C49.4736 30.4978 49.5701 30.5509 49.6697 30.5947V31.7296V31.7327Z" fill="#F2A900"/>
<path d="M46.4449 33.4929C54.353 33.4929 60.7637 30.447 60.7637 26.6898C60.7637 22.9326 54.353 19.8868 46.4449 19.8868C38.5369 19.8868 32.1262 22.9326 32.1262 26.6898C32.1262 30.447 38.5369 33.4929 46.4449 33.4929Z" fill="#F2A900"/>
<path d="M60.7637 23.8948H32.1262V26.693H60.7637V23.8948Z" fill="#F2A900"/>
<path fill-rule="evenodd" clip-rule="evenodd" d="M46.4449 30.6978C54.3327 30.6978 60.7637 27.6402 60.7637 23.8948C60.7637 20.1494 54.3296 17.0917 46.4449 17.0917C38.5603 17.0917 32.1262 20.1494 32.1262 23.8948C32.1262 27.6402 38.5603 30.6978 46.4449 30.6978Z" fill="#F2A900"/>
<path fill-rule="evenodd" clip-rule="evenodd" d="M46.445 29.3754C53.2993 29.3754 58.893 26.9118 58.893 23.8917C58.893 20.8716 53.3024 18.408 46.445 18.408C39.5875 18.408 33.9969 20.8716 33.9969 23.8917C33.9969 26.9118 39.5875 29.3754 46.445 29.3754Z" fill="#FFD573"/>
<path d="M47.8332 20.6714C48.4184 20.7496 48.9071 20.8747 49.3025 21.0529C49.8472 21.2998 50.1927 21.6312 50.3452 22.0439L48.1445 22.1815C48.0854 22.0345 47.9826 21.9095 47.8363 21.8063V20.6714H47.8332ZM47.8332 23.2413C48.8293 23.4039 49.5359 23.6009 49.9437 23.8322C50.448 24.1167 50.7001 24.4825 50.7001 24.9296C50.7001 25.4267 50.3826 25.8488 49.7476 26.1895C49.2589 26.4553 48.6176 26.6397 47.8332 26.746V25.7612C47.9515 25.7206 48.0605 25.6737 48.1601 25.6174C48.434 25.4642 48.571 25.2829 48.571 25.0765C48.571 24.8921 48.4558 24.7326 48.2254 24.5982C48.1227 24.5388 47.992 24.4856 47.8332 24.4388V23.2382V23.2413ZM45.8379 25.8488V24.1167C45.6418 24.0886 45.4551 24.0605 45.2776 24.0292V22.7786C45.4333 22.8412 45.62 22.8943 45.8379 22.9381V21.5062C45.6232 21.5406 45.4364 21.5906 45.2776 21.6563V20.6496C45.4582 20.6308 45.6449 20.6152 45.8379 20.6058V20.1962H47.0986V20.6058C47.3601 20.6214 47.606 20.6433 47.8363 20.6746V21.8095C47.6558 21.6813 47.4099 21.5875 47.0986 21.5218V23.1382C47.3601 23.1726 47.606 23.2069 47.8363 23.2445V24.445C47.6371 24.3856 47.3912 24.3356 47.0986 24.2981V25.9113C47.3788 25.8863 47.6247 25.8394 47.8363 25.7675V26.7523C47.6029 26.7836 47.357 26.8086 47.0986 26.8273V27.5995H45.8379V26.8461C45.6449 26.8336 45.4582 26.8179 45.2776 26.7992V25.6643C45.4519 25.7456 45.6387 25.8081 45.8379 25.855V25.8488ZM45.2776 24.0292C44.4216 23.8791 43.7742 23.6728 43.3353 23.4164C42.8061 23.1038 42.5384 22.7224 42.5384 22.2784C42.5384 21.8345 42.8372 21.4468 43.438 21.1404C43.9236 20.8934 44.5368 20.7308 45.2776 20.6496V21.6563C45.1811 21.6938 45.0971 21.7375 45.0193 21.7876C44.8169 21.9189 44.7173 22.0658 44.7173 22.2253C44.7173 22.3691 44.8107 22.5066 44.9944 22.6317C45.0722 22.6848 45.1687 22.7317 45.2807 22.7755V24.0261L45.2776 24.0292ZM45.2776 26.7929C44.5275 26.7085 43.8956 26.5459 43.3913 26.3052C42.7656 26.0082 42.3672 25.5893 42.1929 25.0453L44.4652 24.9296C44.5586 25.1484 44.7329 25.3392 44.9881 25.4986C45.0815 25.558 45.178 25.6112 45.2807 25.6549V26.7898L45.2776 26.7929Z" fill="#F2A900"/>
<path fill-rule="evenodd" clip-rule="evenodd" d="M50.1055 29.6005C57.9933 29.6005 64.4243 26.5429 64.4243 22.7974C64.4243 19.052 57.9902 15.9944 50.1055 15.9944C42.2209 15.9944 35.7867 19.052 35.7867 22.7974C35.7867 26.5429 42.2177 29.6005 50.1055 29.6005Z" fill="#F2A900"/>
<path d="M64.4274 19.9993H35.7867V22.7975H64.4274V19.9993Z" fill="#F2A900"/>
<path fill-rule="evenodd" clip-rule="evenodd" d="M50.1055 26.8023C57.9933 26.8023 64.4243 23.7447 64.4243 19.9993C64.4243 16.2539 57.9902 13.1931 50.1055 13.1931C42.2209 13.1931 35.7867 16.2507 35.7867 19.9993C35.7867 23.7478 42.2177 26.8023 50.1055 26.8023Z" fill="#F2A900"/>
<path fill-rule="evenodd" clip-rule="evenodd" d="M50.1055 25.483C56.9599 25.483 62.5535 23.0194 62.5535 19.9993C62.5535 16.9792 56.963 14.5156 50.1055 14.5156C43.2481 14.5156 37.6575 16.9792 37.6575 19.9993C37.6575 23.0194 43.2481 25.483 50.1055 25.483Z" fill="#FFD573"/>
<path d="M51.4938 16.776C52.079 16.8542 52.5677 16.9792 52.9599 17.1574C53.5047 17.4044 53.8502 17.7358 54.0027 18.1485L51.802 18.286C51.7428 18.1391 51.6401 18.014 51.4938 17.9109V16.776ZM51.4938 19.3459C52.4899 19.5085 53.1934 19.7054 53.6043 19.9368C54.1085 20.2213 54.3607 20.5871 54.3607 21.0342C54.3607 21.5312 54.0432 21.9533 53.4113 22.2941C52.9195 22.5598 52.2813 22.7443 51.4969 22.8506V21.8658C51.6152 21.8251 51.7242 21.7782 51.8238 21.722C52.0977 21.5688 52.2346 21.3874 52.2346 21.1811C52.2346 20.9966 52.1195 20.8372 51.8891 20.7028C51.7864 20.6434 51.6557 20.5902 51.4969 20.5433V19.3428L51.4938 19.3459ZM49.4985 21.9533V20.2213C49.3024 20.1931 49.1156 20.165 48.9382 20.1337V18.8832C49.0939 18.9457 49.2806 18.9989 49.4985 19.0426V17.6107C49.2837 17.6451 49.097 17.6952 48.9382 17.7608V16.7541C49.1188 16.7354 49.3055 16.7197 49.4985 16.7103V16.3008H50.7592V16.7103C51.0207 16.726 51.2666 16.7479 51.4969 16.7791V17.914C51.3164 17.7858 51.0705 17.692 50.7592 17.6264V19.2427C51.0207 19.2771 51.2666 19.3115 51.4969 19.349V20.5496C51.2977 20.4902 51.0518 20.4401 50.7592 20.4026V22.0158C51.0393 21.9908 51.2853 21.9439 51.4969 21.872V22.8568C51.2635 22.8881 51.0176 22.9131 50.7592 22.9319V23.7041H49.4985V22.9506C49.3055 22.9381 49.1156 22.9225 48.9382 22.9037V21.7689C49.1125 21.8501 49.2993 21.9127 49.4985 21.9596V21.9533ZM48.9382 20.1337C48.0822 19.9837 47.4347 19.7773 46.9958 19.521C46.4667 19.2083 46.199 18.8269 46.199 18.383C46.199 17.939 46.4978 17.5513 47.0986 17.245C47.5842 16.998 48.1974 16.8354 48.9382 16.7572V17.7639C48.8417 17.8015 48.7577 17.8452 48.6799 17.8952C48.4775 18.0266 48.3779 18.1735 48.3779 18.3329C48.3779 18.4799 48.4713 18.6143 48.655 18.7394C48.7328 18.7925 48.8293 18.8394 48.9413 18.8832V20.1337H48.9382ZM48.9382 22.8975C48.188 22.8131 47.5593 22.6505 47.0519 22.4098C46.4262 22.1128 46.0278 21.6938 45.8535 21.1498L48.1258 21.0342C48.2161 21.253 48.3935 21.4437 48.6487 21.6032C48.7421 21.6626 48.8386 21.7157 48.9413 21.7595V22.8944L48.9382 22.8975Z" fill="#F2A900"/>
<path d="M45.1874 25.5143C53.0954 25.5143 59.5062 22.4685 59.5062 18.7113C59.5062 14.954 53.0954 11.9082 45.1874 11.9082C37.2793 11.9082 30.8686 14.954 30.8686 18.7113C30.8686 22.4685 37.2793 25.5143 45.1874 25.5143Z" fill="#F2A900"/>
<path d="M59.5062 15.9163H30.8686V18.7144H59.5062V15.9163Z" fill="#F2A900"/>
<path fill-rule="evenodd" clip-rule="evenodd" d="M45.1874 22.7193C53.0752 22.7193 59.5062 19.6617 59.5062 15.9163C59.5062 12.1708 53.0752 9.11322 45.1874 9.11322C37.2996 9.11322 30.8686 12.1677 30.8686 15.9163C30.8686 19.6648 37.2996 22.7193 45.1874 22.7193Z" fill="#F2A900"/>
<path fill-rule="evenodd" clip-rule="evenodd" d="M45.1874 21.4C52.0417 21.4 57.6354 18.9364 57.6354 15.9163C57.6354 12.8962 52.0448 10.4326 45.1874 10.4326C38.3299 10.4326 32.7394 12.8962 32.7394 15.9163C32.7394 18.9364 38.3299 21.4 45.1874 21.4Z" fill="#FFD573"/>
<path d="M46.5757 12.6929C47.1609 12.7711 47.6496 12.8961 48.0418 13.0743C48.5865 13.3213 48.932 13.6527 49.0846 14.0654L46.8838 14.203C46.8247 14.056 46.722 13.931 46.5757 13.8278V12.6929ZM46.5757 15.2628C47.5717 15.4254 48.2752 15.6224 48.683 15.8537C49.1873 16.1382 49.4394 16.504 49.4394 16.9511C49.4394 17.4482 49.1219 17.8702 48.49 18.211C47.9982 18.4768 47.3601 18.6612 46.5725 18.7675V17.7827C46.6908 17.7421 46.7998 17.6952 46.8994 17.6389C47.1733 17.4857 47.3103 17.3044 47.3103 17.098C47.3103 16.9136 47.1951 16.7541 46.9648 16.6197C46.862 16.5603 46.7313 16.5071 46.5725 16.4602V15.2597L46.5757 15.2628ZM44.5804 17.8702V16.1382C44.3843 16.1101 44.1975 16.0819 44.0201 16.0507V14.8001C44.1757 14.8626 44.3625 14.9158 44.5804 14.9596V13.5277C44.3656 13.5621 44.1788 13.6121 44.0201 13.6777V12.671C44.2006 12.6523 44.3874 12.6366 44.5804 12.6273V12.2177H45.841V12.6273C46.1025 12.6429 46.3484 12.6648 46.5788 12.6961V13.8309C46.3982 13.7028 46.1523 13.609 45.841 13.5433V15.1597C46.1025 15.194 46.3484 15.2284 46.5788 15.266V16.4665C46.3796 16.4071 46.1336 16.3571 45.841 16.3195V17.9328C46.1212 17.9078 46.3671 17.8609 46.5788 17.789V18.7738C46.3453 18.805 46.0994 18.83 45.841 18.8488V19.621H44.5804V18.8676C44.3874 18.8551 44.2006 18.8394 44.0201 18.8207V17.6858C44.1944 17.7671 44.3811 17.8296 44.5804 17.8765V17.8702ZM44.0201 16.0507C43.1641 15.9006 42.5166 15.6943 42.0777 15.4379C41.5485 15.1253 41.2808 14.7438 41.2808 14.2999C41.2808 13.8559 41.5796 13.4683 42.1804 13.1619C42.666 12.9149 43.2792 12.7523 44.0201 12.6742V13.6809C43.9236 13.7184 43.8395 13.7622 43.7617 13.8122C43.5594 13.9435 43.4598 14.0904 43.4598 14.2499C43.4598 14.3937 43.5531 14.5312 43.7368 14.6563C43.8146 14.7095 43.9111 14.7563 44.0232 14.8001V16.0507H44.0201ZM44.0201 18.8144C43.2699 18.73 42.638 18.5674 42.1337 18.3267C41.5081 18.0297 41.1096 17.6108 40.9353 17.0668L43.2076 16.9511C43.301 17.1699 43.4753 17.3606 43.7306 17.5201C43.824 17.5795 43.9205 17.6326 44.0232 17.6764V18.8113L44.0201 18.8144Z" fill="#F2A900"/>
<path d="M41.6201 21.7438C49.5282 21.7438 55.9389 18.698 55.9389 14.9408C55.9389 11.1836 49.5282 8.13776 41.6201 8.13776C33.7121 8.13776 27.3013 11.1836 27.3013 14.9408C27.3013 18.698 33.7121 21.7438 41.6201 21.7438Z" fill="#F2A900"/>
<path d="M55.9389 12.1427H27.3013V14.9408H55.9389V12.1427Z" fill="#F2A900"/>
<path fill-rule="evenodd" clip-rule="evenodd" d="M41.6201 18.9457C49.5079 18.9457 55.9389 15.8881 55.9389 12.1426C55.9389 8.39722 49.5079 5.3396 41.6201 5.3396C33.7323 5.3396 27.3013 8.39409 27.3013 12.1426C27.3013 15.8912 33.7323 18.9457 41.6201 18.9457Z" fill="#F2A900"/>
<path fill-rule="evenodd" clip-rule="evenodd" d="M41.6201 17.6263C48.4745 17.6263 54.0681 15.1627 54.0681 12.1426C54.0681 9.12254 48.4776 6.65894 41.6201 6.65894C34.7627 6.65894 29.1721 9.12254 29.1721 12.1426C29.1721 15.1627 34.7627 17.6263 41.6201 17.6263Z" fill="#FFD573"/>
<path d="M43.0084 8.9193C43.5936 8.99746 44.0823 9.12252 44.4745 9.30073C45.0193 9.54771 45.3648 9.87911 45.5173 10.2918L43.3166 10.4294C43.2574 10.2824 43.1547 10.1574 43.0084 10.0542V8.9193ZM43.0084 11.4892C44.0045 11.6518 44.708 11.8487 45.1157 12.0801C45.62 12.3646 45.8722 12.7304 45.8722 13.1775C45.8722 13.6746 45.5546 14.0966 44.9228 14.4374C44.4309 14.7031 43.7928 14.8876 43.0084 14.9939V14.0091C43.1267 13.9684 43.2356 13.9215 43.3352 13.8653C43.6092 13.7121 43.7461 13.5307 43.7461 13.3244C43.7461 13.1399 43.631 12.9805 43.4006 12.8461C43.2979 12.7867 43.1671 12.7335 43.0084 12.6866V11.4861V11.4892ZM41.0131 14.0966V12.3646C40.817 12.3396 40.6302 12.3083 40.4528 12.2771V11.0265C40.6084 11.089 40.7952 11.1422 41.0131 11.1859V9.75405C40.7983 9.78844 40.6116 9.83847 40.4528 9.90412V8.89742C40.6333 8.87866 40.8201 8.86303 41.0131 8.85365V8.44409H42.2738V8.85365C42.5353 8.86928 42.7812 8.89117 43.0115 8.92243V10.0573C42.831 9.92913 42.5851 9.83534 42.2738 9.76969V11.386C42.5353 11.4204 42.7812 11.4548 43.0115 11.4923V12.6929C42.8123 12.6335 42.5664 12.5834 42.2738 12.5459V14.1592C42.5539 14.1341 42.7998 14.0872 43.0115 14.0153V15.0002C42.7781 15.0314 42.5321 15.0564 42.2738 15.0752V15.8474H41.0131V15.0939C40.8201 15.0814 40.6333 15.0658 40.4528 15.047V13.9122C40.6271 13.9935 40.8139 14.056 41.0131 14.1029V14.0966ZM40.4528 12.2771C39.5968 12.127 38.9493 11.9206 38.5104 11.6643C37.9813 11.3516 37.7136 10.9702 37.7136 10.5263C37.7136 10.0823 38.0124 9.69465 38.6132 9.38826C39.0987 9.14128 39.712 8.97871 40.4528 8.89742V9.90412C40.3563 9.94164 40.2723 9.98853 40.1944 10.0354C39.9921 10.1667 39.8925 10.3137 39.8925 10.4731C39.8925 10.6169 39.9859 10.7545 40.1695 10.8796C40.2474 10.9327 40.3439 10.9796 40.4559 11.0234V12.2739L40.4528 12.2771ZM40.4528 15.0408C39.7026 14.9564 39.0707 14.7938 38.5665 14.5531C37.9408 14.2561 37.5424 13.8371 37.368 13.2931L39.6404 13.1775C39.7338 13.3963 39.9081 13.587 40.1633 13.7465C40.2567 13.8059 40.3532 13.859 40.4559 13.9028V15.0377L40.4528 15.0408Z" fill="#F2A900"/>
<path d="M48.0978 16.8292C56.0058 16.8292 62.4166 13.7833 62.4166 10.0261C62.4166 6.26891 56.0058 3.22308 48.0978 3.22308C40.1897 3.22308 33.779 6.26891 33.779 10.0261C33.779 13.7833 40.1897 16.8292 48.0978 16.8292Z" fill="#F2A900"/>
<path d="M62.4197 7.22797H33.779V10.0261H62.4197V7.22797Z" fill="#F2A900"/>
<path fill-rule="evenodd" clip-rule="evenodd" d="M48.0978 14.0341C55.9856 14.0341 62.4166 10.9765 62.4166 7.2311C62.4166 3.48567 55.9856 0.424927 48.0978 0.424927C40.21 0.424927 33.779 3.48255 33.779 7.22797C33.779 10.9734 40.21 14.031 48.0978 14.031V14.0341Z" fill="#F2A900"/>
<path fill-rule="evenodd" clip-rule="evenodd" d="M48.0978 12.7117C54.9521 12.7117 60.5458 10.2481 60.5458 7.22795C60.5458 4.20785 54.9552 1.74738 48.0978 1.74738C41.2403 1.74738 35.6498 4.20785 35.6498 7.22795C35.6498 10.2481 41.2403 12.7117 48.0978 12.7117Z" fill="#FFD573"/>
<path d="M52.4183 10.6733L49.7071 11.2173L43.5905 7.70005L44.5741 6.96222C44.9445 6.96222 45.3212 6.94347 45.7009 6.90907C46.0807 6.87468 46.4386 6.81528 46.7686 6.734C47.0986 6.65271 47.3912 6.54329 47.6433 6.40885C47.8954 6.27442 48.0791 6.10559 48.2005 5.90237H43.385L44.0792 5.05825H48.2409C48.0697 4.72372 47.6682 4.47361 47.0332 4.30478C46.3982 4.13596 45.5982 4.05467 44.6239 4.05467H43.3819L44.076 3.24493H53.2214L52.6144 4.05467H49.6355C50.0339 4.15784 50.367 4.28915 50.644 4.45172C50.921 4.6143 51.1109 4.81439 51.2261 5.05825H53.1529L52.6175 5.90237H51.2759C51.1887 6.19 51.0082 6.44011 50.7312 6.64646C50.4541 6.8528 50.0962 7.02788 49.6573 7.16857C49.2184 7.30925 48.7141 7.4218 48.1413 7.50934C47.5686 7.59688 46.9523 7.66254 46.2892 7.70943L52.4152 10.6701L52.4183 10.6733Z" fill="#F2A900"/>
<path fill-rule="evenodd" clip-rule="evenodd" d="M66.65 59.4951C74.5377 59.4951 80.9687 53.0328 80.9687 45.1137C80.9687 37.1945 74.5346 30.7322 66.65 30.7322C58.7653 30.7322 52.3312 37.1914 52.3312 45.1137C52.3312 53.036 58.7622 59.4951 66.65 59.4951Z" fill="#F2A900"/>
<path fill-rule="evenodd" clip-rule="evenodd" d="M66.65 56.7032C73.0063 56.7032 78.189 51.4978 78.189 45.1137C78.189 38.7296 73.0063 33.5241 66.65 33.5241C60.2937 33.5241 55.1109 38.7296 55.1109 45.1137C55.1109 51.4978 60.2937 56.7032 66.65 56.7032Z" fill="#FFD573"/>
<path d="M71.1199 52.2481L68.4087 53.2642L62.2921 46.6925L63.2757 45.3169C63.6461 45.3169 64.0228 45.2825 64.4025 45.2168C64.7823 45.1512 65.1402 45.0418 65.4702 44.8886C65.8002 44.7354 66.0928 44.5322 66.3449 44.2789C66.597 44.0257 66.7807 43.7099 66.9021 43.3316H62.0866L62.7808 41.7559H66.9425C66.7713 41.1306 66.3698 40.6617 65.7348 40.349C65.0998 40.0364 64.2998 39.8801 63.3255 39.8801H62.0835L62.7776 38.3638H71.923L71.316 39.8801H68.3371C68.7355 40.0739 69.0686 40.3209 69.3456 40.6242C69.6226 40.9274 69.8125 41.3026 69.9277 41.7559H71.8545L71.3191 43.3316H69.9775C69.8903 43.8694 69.7098 44.3352 69.4328 44.7229C69.1557 45.1105 68.7978 45.4388 68.3589 45.7014C67.92 45.9641 67.4157 46.1766 66.8429 46.3392C66.2702 46.5018 65.6539 46.6268 64.9908 46.7144L71.1168 52.2512L71.1199 52.2481Z" fill="#F2A900"/>
</g>
<g clip-path="url(#clip1_4_389)">
<path d="M40.4145 23.7581L7.65027 39.3698L15.0271 54.6406L47.7913 39.0289L40.4145 23.7581Z" fill="#76AA60"/>
<path d="M39.4012 26.511L10.4464 40.3075L16.0414 51.8897L44.9961 38.0932L39.4012 26.511Z" fill="#90C67B"/>
<path fill-rule="evenodd" clip-rule="evenodd" d="M14.0742 38.5804C15.0359 40.5712 14.1891 42.9579 12.1868 43.9108L10.4459 40.3073L14.0742 38.5782V38.5804Z" fill="#76AA60"/>
<path fill-rule="evenodd" clip-rule="evenodd" d="M35.7745 28.2418C36.7362 30.2326 39.1393 31.0714 41.1415 30.1163L39.4006 26.5127L35.7722 28.2395L35.7745 28.2418Z" fill="#76AA60"/>
<path fill-rule="evenodd" clip-rule="evenodd" d="M19.8106 50.4581C18.8489 48.4695 16.4458 47.6285 14.4435 48.5836L16.1845 52.1872L19.8129 50.4581H19.8106Z" fill="#76AA60"/>
<path fill-rule="evenodd" clip-rule="evenodd" d="M41.5131 40.1217C40.5514 38.1309 41.396 35.7464 43.4005 34.7913L45.1415 38.3948L41.5131 40.1239V40.1217Z" fill="#76AA60"/>
<path fill-rule="evenodd" clip-rule="evenodd" d="M25.6732 34.959C28.0313 33.8361 30.8624 34.8225 31.993 37.1667C33.1236 39.511 32.1304 42.3204 29.77 43.4433C27.412 44.5662 24.5809 43.5798 23.4503 41.2356C22.3174 38.8936 23.3129 36.0819 25.6732 34.959Z" fill="#76AA60"/>
<path d="M12.3819 34.4161L10.1913 51.2131L46.2301 55.8491L48.4207 39.052L12.3819 34.4161Z" fill="#76AA60"/>
<path d="M14.2125 36.7154L12.5511 49.4551L44.3997 53.5521L46.0611 40.8123L14.2125 36.7154Z" fill="#90C67B"/>
<path fill-rule="evenodd" clip-rule="evenodd" d="M18.2025 37.2272C17.9165 39.4148 15.9007 40.9605 13.6958 40.6764L14.2116 36.715L18.2025 37.2272Z" fill="#76AA60"/>
<path fill-rule="evenodd" clip-rule="evenodd" d="M42.0717 40.2961C41.7857 42.4838 43.342 44.488 45.5447 44.7721L46.0604 40.8106L42.0717 40.2984V40.2961Z" fill="#76AA60"/>
<path fill-rule="evenodd" clip-rule="evenodd" d="M16.4998 50.2926C16.7859 48.1049 15.2296 46.1007 13.0269 45.8167L12.5111 49.7781L16.4998 50.2903V50.2926Z" fill="#76AA60"/>
<path fill-rule="evenodd" clip-rule="evenodd" d="M40.369 53.3615C40.6551 51.1739 42.6708 49.6282 44.8757 49.9123L44.36 53.876L40.3713 53.3638L40.369 53.3615Z" fill="#76AA60"/>
<path fill-rule="evenodd" clip-rule="evenodd" d="M29.9142 40.4661C32.5087 40.7994 34.3398 43.1593 34.0042 45.7361C33.6686 48.313 31.2925 50.1315 28.698 49.7983C26.1034 49.465 24.2723 47.1051 24.6079 44.5283C24.9435 41.9514 27.3196 40.1329 29.9142 40.4661Z" fill="#76AA60"/>
<path d="M50.298 29.8245L14.8182 37.6299L18.5064 54.1665L53.9862 46.361L50.298 29.8245Z" fill="#76AA60"/>
<path d="M48.6811 32.2765L17.3265 39.1744L20.1238 51.7166L51.4784 44.8187L48.6811 32.2765Z" fill="#90C67B"/>
<path fill-rule="evenodd" clip-rule="evenodd" d="M21.2543 38.3076C21.734 40.4616 20.3669 42.5956 18.1958 43.072L17.3264 39.171L21.2543 38.3076Z" fill="#76AA60"/>
<path fill-rule="evenodd" clip-rule="evenodd" d="M44.7519 33.1382C45.2316 35.2923 47.3803 36.6523 49.5492 36.1758L48.6798 32.2748L44.7519 33.1382Z" fill="#76AA60"/>
<path fill-rule="evenodd" clip-rule="evenodd" d="M24.1237 51.1716C23.644 49.0176 21.4953 47.6575 19.3264 48.134L20.1958 52.0351L24.1237 51.1716Z" fill="#76AA60"/>
<path fill-rule="evenodd" clip-rule="evenodd" d="M47.6213 46.0023C47.1415 43.8483 48.5087 41.7143 50.6798 41.2379L51.5492 45.1389L47.6213 46.0023Z" fill="#76AA60"/>
<path fill-rule="evenodd" clip-rule="evenodd" d="M33.3781 37.4016C35.9322 36.8402 38.4614 38.4418 39.029 40.9783C39.5943 43.5149 37.9839 46.0269 35.4277 46.5906C32.8736 47.152 30.3444 45.5527 29.7768 43.0139C29.2115 40.4773 30.8241 37.9653 33.3781 37.4016Z" fill="#76AA60"/>
<path d="M35.1709 32.7579H3.96163C2.18786 32.7579 0.749939 34.186 0.749939 35.9477V52.3594C0.749939 54.121 2.18786 55.5491 3.96163 55.5491H35.1709C36.9446 55.5491 38.3826 54.121 38.3826 52.3594V35.9477C38.3826 34.186 36.9446 32.7579 35.1709 32.7579Z" fill="#873834"/>
<path d="M4.88055 34.704H34.252C35.3916 34.704 36.3173 35.6233 36.3173 36.7552V51.5519C36.3173 52.6837 35.3916 53.6031 34.252 53.6031H4.88055C3.74092 53.6031 2.81525 52.6837 2.81525 51.5519V36.7552C2.81525 35.6233 3.74092 34.704 4.88055 34.704Z" stroke="#C9928F" stroke-width="3.12" stroke-linecap="round" stroke-linejoin="round"/>
<path d="M17.3287 31.8118H21.8038C22.2836 31.8118 22.6732 32.1987 22.6732 32.6752V38.4999C22.6732 38.9764 22.2836 39.3634 21.8038 39.3634H17.3287C16.8489 39.3634 16.4593 38.9764 16.4593 38.4999V32.6752C16.4593 32.1987 16.8489 31.8118 17.3287 31.8118Z" fill="#C9928F"/>
<path fill-rule="evenodd" clip-rule="evenodd" d="M19.5674 38.6721C20.4457 38.6721 21.1619 37.9608 21.1619 37.0884C21.1619 36.2161 20.4457 35.5048 19.5674 35.5048C18.689 35.5048 17.9728 36.2161 17.9728 37.0884C17.9728 37.9608 18.689 38.6721 19.5674 38.6721Z" fill="#873834"/>
</g>
<defs>
<clipPath id="clip0_4_389">
<rect width="54.6946" height="59.0702" fill="white" transform="translate(26.2741 0.424927)"/>
</clipPath>
<clipPath id="clip1_4_389">
<rect width="53.2361" height="32.0875" fill="white" transform="translate(0.749939 23.7614)"/>
</clipPath>
</defs>
</svg>
