<svg width="72" height="43" viewBox="0 0 72 43" fill="none" xmlns="http://www.w3.org/2000/svg">
<g clip-path="url(#clip0_4_484)">
<path d="M58.0517 10.7816L56.9852 5.83879C56.3355 2.80224 53.6109 0.627808 50.4694 0.627808H7.18616C3.50166 0.637387 0.524963 3.58772 0.524963 7.21817V37.2196H71.2093V26.7881C71.2093 22.6979 68.5332 19.077 64.5869 17.8317L64.4705 17.7934C61.2126 16.7684 58.7692 14.0959 58.0517 10.7911V10.7816Z" fill="white"/>
<path d="M49.1992 3.27185H44.8069V35.237H49.1992V3.27185Z" fill="#D1ECF2"/>
<path d="M44.8069 3.27185H40.4146V35.237H44.8069V3.27185Z" fill="#DFF9FF"/>
<path d="M57.596 18.3204H51.5844C51.3711 18.3204 51.1966 18.148 51.1966 17.9373V5.03436C51.1966 4.62246 51.7687 4.49793 51.9432 4.87152L57.9548 17.784C58.0711 18.0427 57.8869 18.33 57.6057 18.33L57.596 18.3204Z" fill="#DFF9FF"/>
<path d="M57.596 18.6557H51.5844C51.1869 18.6557 50.8572 18.3396 50.8572 17.9373V5.03434C50.8572 4.63203 51.1772 4.31592 51.5844 4.31592C51.8656 4.31592 52.1177 4.47876 52.2341 4.72782L58.2456 17.6403C58.3523 17.8606 58.3329 18.1193 58.1972 18.3204C58.0614 18.5216 57.8384 18.6461 57.5863 18.6461L57.596 18.6557ZM51.6329 5.00561L51.5263 5.02476V17.9373L57.5863 17.9947C57.5863 17.9947 57.6251 17.9947 57.6348 17.966L51.6329 5.00561Z" fill="#9F2929"/>
<path d="M42.4604 4.6416H42.4314C41.8691 4.6416 41.4133 5.09191 41.4133 5.6474V18.2438C41.4133 18.7993 41.8691 19.2496 42.4314 19.2496H42.4604C43.0227 19.2496 43.4785 18.7993 43.4785 18.2438V5.6474C43.4785 5.09191 43.0227 4.6416 42.4604 4.6416Z" fill="#DFF9FF"/>
<path d="M42.4508 19.5849H42.4314C41.6848 19.5849 41.0739 18.9814 41.0739 18.2438V5.65698C41.0739 4.9194 41.6848 4.31592 42.4314 4.31592C43.178 4.31592 43.8082 4.9194 43.8082 5.65698V18.2534C43.8082 18.991 43.1974 19.5944 42.4508 19.5944V19.5849ZM42.4508 4.97687C42.0532 4.97687 41.7429 5.2834 41.7429 5.65698V18.2534C41.7429 18.627 42.0532 18.9335 42.4314 18.9335H42.4508C42.8289 18.9335 43.1392 18.627 43.1392 18.2534V5.65698C43.1392 5.2834 42.8289 4.97687 42.4508 4.97687Z" fill="#9F2929"/>
<path d="M47.0176 4.6416H46.9885C46.4262 4.6416 45.9704 5.09191 45.9704 5.6474V18.2438C45.9704 18.7993 46.4262 19.2496 46.9885 19.2496H47.0176C47.5798 19.2496 48.0357 18.7993 48.0357 18.2438V5.6474C48.0357 5.09191 47.5798 4.6416 47.0176 4.6416Z" fill="#DFF9FF"/>
<path d="M47.0079 19.5849H46.9885C46.2419 19.5849 45.631 18.9814 45.631 18.2438V5.65698C45.631 4.9194 46.2419 4.31592 46.9885 4.31592C47.7351 4.31592 48.3653 4.9194 48.3653 5.65698V18.2534C48.3653 18.991 47.7545 19.5944 47.0079 19.5944V19.5849ZM47.0079 4.97687C46.6103 4.97687 46.3001 5.2834 46.3001 5.65698V18.2534C46.3001 18.627 46.6103 18.9335 46.9885 18.9335H47.0079C47.386 18.9335 47.6963 18.627 47.6963 18.2534V5.65698C47.6963 5.2834 47.386 4.97687 47.0079 4.97687Z" fill="#9F2929"/>
<path d="M62.0368 42.153C65.9031 42.153 69.0374 39.0566 69.0374 35.237C69.0374 31.4173 65.9031 28.3209 62.0368 28.3209C58.1705 28.3209 55.0363 31.4173 55.0363 35.237C55.0363 39.0566 58.1705 42.153 62.0368 42.153Z" fill="#75341E"/>
<path d="M64.8778 35.237C64.8778 36.7888 63.6076 38.0341 62.0465 38.0341C60.4855 38.0341 59.2153 36.7792 59.2153 35.237C59.2153 33.6948 60.4855 32.4399 62.0465 32.4399C63.6076 32.4399 64.8778 33.6948 64.8778 35.237Z" fill="#DFF9FF"/>
<path d="M15.9708 42.153C19.8371 42.153 22.9713 39.0566 22.9713 35.237C22.9713 31.4173 19.8371 28.3209 15.9708 28.3209C12.1045 28.3209 8.97021 31.4173 8.97021 35.237C8.97021 39.0566 12.1045 42.153 15.9708 42.153Z" fill="#75341E"/>
<path d="M18.8117 35.237C18.8117 36.7888 17.5415 38.0341 15.9805 38.0341C14.4194 38.0341 13.1492 36.7792 13.1492 35.237C13.1492 33.6948 14.4194 32.4399 15.9805 32.4399C17.5415 32.4399 18.8117 33.6948 18.8117 35.237Z" fill="#DFF9FF"/>
<path d="M18.9633 8.26465H18.9417H17.5389H17.5118V8.3021L15.7137 11.4269L13.8938 8.26465H12.464V14.83H13.8938V10.742L14.9987 12.6629L14.9933 12.679H15.0096H16.4177H16.4394L16.4286 12.6629L17.5118 10.7795V14.83H18.9417V8.3021L18.9633 8.26465Z" fill="#205667"/>
<path d="M21.5035 8.26465H20.0736V14.83H21.5035V8.26465Z" fill="#205667"/>
<path d="M26.4754 13.4174H24.2061V8.26465H22.7762V14.83H24.2061H26.4754V13.4174Z" fill="#205667"/>
<path d="M28.409 8.26465H26.9792V14.83H28.409V8.26465Z" fill="#205667"/>
<path d="M31.8483 14.83L29.2648 11.1273L31.5287 8.26465H29.9147L28.409 10.1695V8.26465H26.9792V14.83H28.409V12.4436L30.0447 14.83H31.8483Z" fill="#205667"/>
<path d="M23.5046 37.3444H23.5337C24.4839 37.2773 25.1433 36.3865 24.9299 35.4765L23.398 28.8957C23.1556 27.842 22.2054 27.0948 21.1097 27.0948H9.71682C8.99931 27.0948 8.38846 27.5738 8.22362 28.2635L6.47833 35.4765C6.25532 36.3961 6.92435 37.2869 7.87457 37.3444H8.01031C8.7763 37.4019 9.45503 36.8942 9.61986 36.1566L9.89135 34.9017C10.444 32.3633 12.7129 30.5529 15.3405 30.5529H16.252C19.0347 30.5529 21.3909 32.5836 21.7787 35.3041L21.8854 36.0416C21.992 36.8367 22.7095 37.4019 23.5143 37.354L23.5046 37.3444Z" fill="#DFF9FF"/>
<path d="M69.8421 37.3444H69.8712C70.8214 37.2773 71.4808 36.3865 71.2675 35.4765L69.7355 28.8957C69.4931 27.842 68.5429 27.0948 67.4472 27.0948H56.0543C55.3368 27.0948 54.726 27.5738 54.5611 28.2635L52.8159 35.4765C52.5928 36.3961 53.2619 37.2869 54.2121 37.3444H54.3478C55.1138 37.4019 55.7925 36.8942 55.9574 36.1566L56.2289 34.9017C56.7815 32.3633 59.0504 30.5529 61.6781 30.5529H62.5895C65.3723 30.5529 67.7284 32.5836 68.1162 35.3041L68.2229 36.0416C68.3296 36.8367 69.0471 37.4019 69.8518 37.354L69.8421 37.3444Z" fill="#DFF9FF"/>
<path d="M35.9932 4.57458H7.51583C6.91607 4.57458 6.42987 5.05492 6.42987 5.64743V5.66659C6.42987 6.25911 6.91607 6.73944 7.51583 6.73944H35.9932C36.5929 6.73944 37.0791 6.25911 37.0791 5.66659V5.64743C37.0791 5.05492 36.5929 4.57458 35.9932 4.57458Z" fill="#DFF9FF"/>
</g>
<defs>
<clipPath id="clip0_4_484">
<rect width="70.7813" height="41.525" fill="white" transform="translate(0.524963 0.637573)"/>
</clipPath>
</defs>
</svg>
