<svg width="488" height="403" viewBox="0 0 488 403" fill="none" xmlns="http://www.w3.org/2000/svg">
<path d="M487.291 316.283C486.666 316.877 485.72 316.911 485.054 316.972C470.271 318.335 476.702 329.157 470.156 334.688C466.135 338.089 460.467 335.04 455.396 334.669C449.287 334.221 443.263 336.592 440.452 340.177C438.445 342.736 438.037 345.75 438.536 348.619C439.299 353.059 442.185 357.135 442.615 361.628C442.971 365.343 441.451 369.419 437.005 371.664C431.136 374.625 422.05 373.131 417.294 369.385C412.538 365.638 411.443 360.345 412.246 355.464C412.957 351.144 415.172 346.547 413.703 342.196C412.384 338.285 406.509 334.408 400.113 336.354C395.994 337.603 394.6 340.847 389.323 340.572C384.9 340.338 381.389 338.124 377.993 336.224C364.001 328.398 360.152 337.591 354.301 344.417C347.79 352.006 334.447 348.405 327.179 343.023C321.815 339.051 318.201 334.132 312.78 330.195C307.359 326.257 299.012 323.323 291.434 325.058C286.392 326.215 282.783 329.187 280.139 332.275C276.565 336.45 272.331 345.356 263.325 345.394C260.399 345.406 258.088 343.85 255.948 342.517C250.567 339.162 244.096 336.588 237.109 335.029C233.374 334.194 229.365 333.646 225.51 334.19C219.458 335.044 216.962 338.507 215.19 342.088C211.289 349.956 200.883 357.583 189.237 360.597C183.501 362.084 177.5 361.643 172.091 359.797C167.92 358.376 161.633 352.274 156.614 354.059C155.535 354.442 154.772 355.135 154.187 355.851C145.582 366.324 156.057 380.424 154.95 391.548C154.571 395.367 152.914 399.596 147.974 401.538C142.054 403.871 134.115 401.672 129.755 398.121C124.116 393.528 122.665 387.215 123.095 381.282C123.588 374.514 126.267 367.822 130.897 361.792C133.145 358.87 135.893 355.989 136.455 352.726C137.551 346.313 128.522 343.276 120.187 344.812C112.54 346.222 107.928 350.577 104.858 355.219C103.872 356.713 102.954 358.311 101.09 359.364C97.9459 361.145 92.9838 360.754 89.6107 359.172C86.2376 357.59 84.1266 355.093 82.2909 352.63C77.1911 345.812 71.575 341.276 59.2701 342.368C54.3366 342.805 49.0533 343.356 44.5845 341.897C41.0336 340.736 38.5497 338.438 37.1442 335.971C34.6201 331.543 36.387 323.583 26.8242 322.947C22.711 322.679 5.68498e-05 323.143 5.60233e-05 318.416L0 -3.67602e-05L487.917 -0.00012207C487.791 18.9532 488.043 267.599 487.917 286.552L487.917 306.174C487.894 309.691 488.364 312.908 487.291 316.283Z" fill="white"/>
</svg>
